<?xml version="1.0" encoding="UTF-8"?>
<svg version="1.1" xmlns="http://www.w3.org/2000/svg" width="210" height="156">
<path d="M0 0 C69.3 0 138.6 0 210 0 C210 51.48 210 102.96 210 156 C140.7 156 71.4 156 0 156 C0 104.52 0 53.04 0 0 Z " fill="#090909" transform="translate(0,0)"/>
<path d="M0 0 C4.95 0 9.9 0 15 0 C15 4.62 15 9.24 15 14 C16.98 14 18.96 14 21 14 C21 11.36 21 8.72 21 6 C28.26 6 35.52 6 43 6 C43 4.02 43 2.04 43 0 C57.19 0 71.38 0 86 0 C86.020625 4.269375 86.04125 8.53875 86.0625 12.9375 C86.071604 14.28577881 86.08070801 15.63405762 86.09008789 17.02319336 C86.09258545 18.07643799 86.09508301 19.12968262 86.09765625 20.21484375 C86.10289307 21.29886475 86.10812988 22.38288574 86.11352539 23.49975586 C86 26 86 26 85 27 C83.00041636 27.04080783 80.99954746 27.04254356 79 27 C79.020625 27.969375 79.04125 28.93875 79.0625 29.9375 C79 33 79 33 78 34 C76.33382885 34.04063832 74.66611905 34.042721 73 34 C73 34.66 73 35.32 73 36 C74.65 36 76.3 36 78 36 C78.5625 37.9375 78.5625 37.9375 79 40 C78.67 40.33 78.34 40.66 78 41 C75.69 41 73.38 41 71 41 C71 32.09 71 23.18 71 14 C67.04 14.33 63.08 14.66 59 15 C58.01 14.505 58.01 14.505 57 14 C57.08378906 14.93199219 57.16757813 15.86398438 57.25390625 16.82421875 C57.93551404 25.35725808 57.93610111 33.45987758 57 42 C59.31 42 61.62 42 64 42 C64 46.62 64 51.24 64 56 C59 57 59 57 57 56 C57 60.29 57 64.58 57 69 C52.05 69 47.1 69 42 69 C42 68.01 42 67.02 42 66 C40.68 65.67 39.36 65.34 38 65 C39.32 65 40.64 65 42 65 C42 62.36 42 59.72 42 57 C40.02 57 38.04 57 36 57 C36 47.43 36 37.86 36 28 C37.98 28 39.96 28 42 28 C42 23.38 42 18.76 42 14 C39.875625 14.12375 37.75125 14.2475 35.5625 14.375 C33.77005859 14.47941406 33.77005859 14.47941406 31.94140625 14.5859375 C30.97074219 14.72257812 30.00007813 14.85921875 29 15 C27.73762269 17.52475462 27.90143596 19.31200466 27.9375 22.125 C27.958125 23.73375 27.97875 25.3425 28 27 C21.565 27.495 21.565 27.495 15 28 C15.020625 29.959375 15.04125 31.91875 15.0625 33.9375 C15.08377188 35.95832876 15.07244053 37.98035801 15 40 C14 41 14 41 10.83984375 41.09765625 C9.55207031 41.08605469 8.26429687 41.07445312 6.9375 41.0625 C5.64714844 41.05347656 4.35679688 41.04445312 3.02734375 41.03515625 C2.02832031 41.02355469 1.02929688 41.01195312 0 41 C-0.33 37.04 -0.66 33.08 -1 29 C-2.98 28.67 -4.96 28.34 -7 28 C-7 23.38 -7 18.76 -7 14 C-4.69 14 -2.38 14 0 14 C0 9.38 0 4.76 0 0 Z " fill="#676664" transform="translate(115,8)"/>
<path d="M0 0 C11.88 0 23.76 0 36 0 C36 4.62 36 9.24 36 14 C38.31 14 40.62 14 43 14 C44.19388403 45.32040447 44.19388403 45.32040447 44 59 C43.01 59.495 43.01 59.495 42 60 C39.43730503 58.95890517 37.97389657 57.97389657 36 56 C36.495 63.425 36.495 63.425 37 71 C32.85542859 71.04613623 28.71176311 71.08589206 24.56713867 71.10986328 C23.15988124 71.11986557 21.7526443 71.13347178 20.34545898 71.15087891 C18.31228552 71.17538366 16.27938894 71.18654083 14.24609375 71.1953125 C13.02591553 71.20578613 11.8057373 71.21625977 10.54858398 71.22705078 C6.69493972 70.98048118 3.65787 70.18578175 0 69 C0 64.71 0 60.42 0 56 C-2.31 56 -4.62 56 -7 56 C-7 46.76 -7 37.52 -7 28 C-2.05 28 2.9 28 8 28 C8 37.24 8 46.48 8 56 C14.6 56 21.2 56 28 56 C28 42.14 28 28.28 28 14 C21.73 14.33 15.46 14.66 9 15 C9.020625 16.794375 9.04125 18.58875 9.0625 20.4375 C9.0838122 22.29166122 9.07226502 24.14712498 9 26 C8 27 8 27 4.62109375 27.09765625 C3.22652923 27.09098369 1.83198257 27.07902532 0.4375 27.0625 C-0.27341797 27.05798828 -0.98433594 27.05347656 -1.71679688 27.04882812 C-3.47790013 27.03700864 -5.23896036 27.01907263 -7 27 C-7 22.71 -7 18.42 -7 14 C-4.69 14 -2.38 14 0 14 C0 9.38 0 4.76 0 0 Z " fill="#626160" transform="translate(22,8)"/>
<path d="M0 0 C2.64 0 5.28 0 8 0 C8 4.62 8 9.24 8 14 C10.31 14 12.62 14 15 14 C15 27.86 15 41.72 15 56 C21.93 56 28.86 56 36 56 C36 51.38 36 46.76 36 42 C40.95 42 45.9 42 51 42 C51.02740796 44.62507322 51.04703194 47.24984991 51.0625 49.875 C51.07087891 50.60203125 51.07925781 51.3290625 51.08789062 52.078125 C51.1132189 57.85297121 50.58250303 63.17496972 50 69 C35.81 69 21.62 69 7 69 C7 64.71 7 60.42 7 56 C5.453125 56.2475 5.453125 56.2475 3.875 56.5 C0.51755674 56.93321848 -2.62336157 57.08235703 -6 57 C-7.01085428 53.65613602 -7.11543463 50.6251882 -7.09765625 47.140625 C-7.09443359 46.02558594 -7.09121094 44.91054688 -7.08789062 43.76171875 C-7.07951172 42.60285156 -7.07113281 41.44398437 -7.0625 40.25 C-7.05798828 39.07566406 -7.05347656 37.90132812 -7.04882812 36.69140625 C-7.03705094 33.79421928 -7.02060326 30.89713546 -7 28 C-4.69 28 -2.38 28 0 28 C0 18.76 0 9.52 0 0 Z " fill="#93918F" transform="translate(79,8)"/>
<path d="M0 0 C7.26 0 14.52 0 22 0 C21.67 4.62 21.34 9.24 21 14 C23.31 14 25.62 14 28 14 C28 18.62 28 23.24 28 28 C23 29 23 29 21 28 C21 32.29 21 36.58 21 41 C16.05 41 11.1 41 6 41 C6 40.01 6 39.02 6 38 C4.68 37.67 3.36 37.34 2 37 C3.32 37 4.64 37 6 37 C6 34.36 6 31.72 6 29 C4.02 29 2.04 29 0 29 C0 19.43 0 9.86 0 0 Z " fill="#DEDBD8" transform="translate(151,36)"/>
<path d="M0 0 C4.95 0 9.9 0 15 0 C15.02740796 2.62507322 15.04703194 5.24984991 15.0625 7.875 C15.07087891 8.60203125 15.07925781 9.3290625 15.08789062 10.078125 C15.1132189 15.85297121 14.58250303 21.17496972 14 27 C0.14 27 -13.72 27 -28 27 C-28 22.71 -28 18.42 -28 14 C-18.76 14 -9.52 14 0 14 C0 9.38 0 4.76 0 0 Z " fill="#DEDBD8" transform="translate(115,50)"/>
<path d="M0 0 C4.29 0 8.58 0 13 0 C13 13.86 13 27.72 13 42 C6.4 42 -0.2 42 -7 42 C-7 33.42 -7 24.84 -7 16 C-6.34 16 -5.68 16 -5 16 C-4.34 16.99 -3.68 17.98 -3 19 C-2.34 17.68 -1.68 16.36 -1 15 C-2.65 14.67 -4.3 14.34 -6 14 C-6 13.67 -6 13.34 -6 13 C-4.35 12.67 -2.7 12.34 -1 12 C-1.01160156 11.21753906 -1.02320313 10.43507813 -1.03515625 9.62890625 C-1.04417969 8.61699219 -1.05320312 7.60507812 -1.0625 6.5625 C-1.07410156 5.55316406 -1.08570313 4.54382813 -1.09765625 3.50390625 C-1 1 -1 1 0 0 Z " fill="#080808" transform="translate(37,22)"/>
<path d="M0 0 C0.33 0 0.66 0 1 0 C1.02887236 3.81248426 1.04675492 7.6249407 1.0625 11.4375 C1.07087891 12.52611328 1.07925781 13.61472656 1.08789062 14.73632812 C1.09111328 15.77080078 1.09433594 16.80527344 1.09765625 17.87109375 C1.10289307 18.82943115 1.10812988 19.78776855 1.11352539 20.77514648 C1 23 1 23 0 24 C-2.33297433 24.04092937 -4.66705225 24.04241723 -7 24 C-7 20.04 -7 16.08 -7 12 C-8.98 12 -10.96 12 -13 12 C-12.97679687 12.77085938 -12.95359375 13.54171875 -12.9296875 14.3359375 C-12.91164062 15.33882812 -12.89359375 16.34171875 -12.875 17.375 C-12.85179687 18.37273437 -12.82859375 19.37046875 -12.8046875 20.3984375 C-13 23 -13 23 -15 25 C-14.72057545 26.67654729 -14.37668344 28.34259285 -14 30 C-13.96227087 31.9996441 -13.95350094 34.00054061 -14 36 C-14.99 36.495 -14.99 36.495 -16 37 C-16.66 36.34 -17.32 35.68 -18 35 C-18 34.34 -18 33.68 -18 33 C-17.34 33 -16.68 33 -16 33 C-16 32.34 -16 31.68 -16 31 C-16.66 30.67 -17.32 30.34 -18 30 C-18.33333333 28.33333333 -18.66666667 26.66666667 -19 25 C-19.66 24.67 -20.32 24.34 -21 24 C-21 19.71 -21 15.42 -21 11 C-23.31 11 -25.62 11 -28 11 C-28 15.29 -28 19.58 -28 24 C-29.98 24.33 -31.96 24.66 -34 25 C-34 26.65 -34 28.3 -34 30 C-36.31 30.33 -38.62 30.66 -41 31 C-41 31.66 -41 32.32 -41 33 C-38.69 33.33 -36.38 33.66 -34 34 C-34 34.99 -34 35.98 -34 37 C-37.21451269 38.60725635 -40.43612536 38.05748185 -44 38 C-44 36.35 -44 34.7 -44 33 C-43.34 33 -42.68 33 -42 33 C-42 32.34 -42 31.68 -42 31 C-42.66 30.67 -43.32 30.34 -44 30 C-43.67 28.35 -43.34 26.7 -43 25 C-44.98 24.34 -46.96 23.68 -49 23 C-49 22.34 -49 21.68 -49 21 C-49.66 20.34 -50.32 19.68 -51 19 C-48.36 19 -45.72 19 -43 19 C-43 18.34 -43 17.68 -43 17 C-43.66 16.67 -44.32 16.34 -45 16 C-47.125 14.5625 -47.125 14.5625 -49 13 C-49 12.34 -49 11.68 -49 11 C-44.17656569 10.06266595 -39.43799588 9.79182198 -34.5390625 9.68359375 C-33.74849457 9.66281265 -32.95792664 9.64203156 -32.1434021 9.62062073 C-29.63734983 9.55564418 -27.13119976 9.49648357 -24.625 9.4375 C-22.91795895 9.39426532 -21.21092751 9.35064951 -19.50390625 9.30664062 C-15.33603574 9.2000166 -11.16806761 9.09860559 -7 9 C-7 8.67 -7 8.34 -7 8 C-4.69 8 -2.38 8 0 8 C0 5.36 0 2.72 0 0 Z " fill="#7B7978" transform="translate(129,67)"/>
<path d="M0 0 C4.95 0 9.9 0 15 0 C15 13.53 15 27.06 15 41 C20.32125 40.814375 20.32125 40.814375 25.75 40.625 C26.86213867 40.59100098 27.97427734 40.55700195 29.12011719 40.52197266 C30.4451123 40.46855713 30.4451123 40.46855713 31.796875 40.4140625 C32.69760742 40.3826416 33.59833984 40.3512207 34.52636719 40.31884766 C37.10090062 39.98699406 38.73809415 39.2242274 41 38 C41.66 38 42.32 38 43 38 C43.495 40.475 43.495 40.475 44 43 C39.85572898 43.04976954 35.71162047 43.08589288 31.56713867 43.10986328 C30.15988124 43.11986557 28.7526443 43.13347178 27.34545898 43.15087891 C25.31228552 43.17538366 23.27938894 43.18654083 21.24609375 43.1953125 C20.02591553 43.20578613 18.8057373 43.21625977 17.54858398 43.22705078 C13.69493972 42.98048118 10.65787 42.18578175 7 41 C7 36.71 7 32.42 7 28 C4.69 28 2.38 28 0 28 C0 18.76 0 9.52 0 0 Z " fill="#8A8887" transform="translate(15,36)"/>
<path d="M0 0 C2.31 0 4.62 0 7 0 C8.35015859 4.05047576 7.62084998 6.7920168 7 11 C9.31 11 11.62 11 14 11 C14 11.33 14 11.66 14 12 C11.69 12 9.38 12 7 12 C7.16371094 12.70511719 7.32742187 13.41023438 7.49609375 14.13671875 C8.31019339 18.76257172 8.05651165 23.30953271 8 28 C12.29 28 16.58 28 21 28 C21 32.29 21 36.58 21 41 C11.76 41 2.52 41 -7 41 C-7 36.71 -7 32.42 -7 28 C-1 29 -1 29 0 30 C0 20.1 0 10.2 0 0 Z " fill="#2C2B2B" transform="translate(65,36)"/>
<path d="M0 0 C0.02886751 4.14581887 0.04675327 8.29161216 0.0625 12.4375 C0.07087891 13.62150391 0.07925781 14.80550781 0.08789062 16.02539062 C0.09111328 17.15009766 0.09433594 18.27480469 0.09765625 19.43359375 C0.10289307 20.47572021 0.10812988 21.51784668 0.11352539 22.59155273 C0 25 0 25 -1 26 C-3.32817964 26.36760731 -5.6618385 26.70241581 -8 27 C-5.69 27 -3.38 27 -1 27 C-0.505 29.475 -0.505 29.475 0 32 C-0.99 32.495 -0.99 32.495 -2 33 C-2 33.66 -2 34.32 -2 35 C-1.01 35.495 -1.01 35.495 0 36 C0 36.66 0 37.32 0 38 C-3.22281282 39.61140641 -5.64502331 40.08590977 -9.1875 39.9375 C-10.445625 39.958125 -11.70375 39.97875 -13 40 C-13.66 40.99 -14.32 41.98 -15 43 C-15 38.05 -15 33.1 -15 28 C-21.93 27.505 -21.93 27.505 -29 27 C-29 31.29 -29 35.58 -29 40 C-30.32 39.01 -31.64 38.02 -33 37 C-33 36.34 -33 35.68 -33 35 C-32.34 35 -31.68 35 -31 35 C-31 34.34 -31 33.68 -31 33 C-31.66 32.67 -32.32 32.34 -33 32 C-33.33333333 30.33333333 -33.66666667 28.66666667 -34 27 C-34.66 26.67 -35.32 26.34 -36 26 C-36 21.71 -36 17.42 -36 13 C-33.69 13 -31.38 13 -29 13 C-29 17.29 -29 21.58 -29 26 C-24.38 25.67 -19.76 25.34 -15 25 C-15 20.71 -15 16.42 -15 12 C-10.545 11.505 -10.545 11.505 -6 11 C-6 10.67 -6 10.34 -6 10 C-4.35 10 -2.7 10 -1 10 C-1 7.36 -1 4.72 -1 2 C-2.65 2 -4.3 2 -6 2 C-6 1.67 -6 1.34 -6 1 C-1.125 0 -1.125 0 0 0 Z " fill="#464545" transform="translate(144,23)"/>
<path d="M0 0 C4.95 0 9.9 0 15 0 C15.02682299 4.31254083 15.04675244 8.62491707 15.0625 12.9375 C15.07087891 14.16919922 15.07925781 15.40089844 15.08789062 16.66992188 C15.09111328 17.83974609 15.09433594 19.00957031 15.09765625 20.21484375 C15.10289307 21.29886475 15.10812988 22.38288574 15.11352539 23.49975586 C15 26 15 26 14 27 C12.00041636 27.04080783 9.99954746 27.04254356 8 27 C8.020625 27.969375 8.04125 28.93875 8.0625 29.9375 C8 33 8 33 7 34 C5.33382885 34.04063832 3.66611905 34.042721 2 34 C2 34.66 2 35.32 2 36 C3.65 36 5.3 36 7 36 C7.5625 37.9375 7.5625 37.9375 8 40 C7.67 40.33 7.34 40.66 7 41 C4.69 41 2.38 41 0 41 C0 32.09 0 23.18 0 14 C-5.94 14.495 -5.94 14.495 -12 15 C-14.95544312 14.92339571 -17.81611754 14.8107955 -20.75 14.5625 C-21.45898438 14.51029297 -22.16796875 14.45808594 -22.8984375 14.40429688 C-24.59959781 14.27785928 -26.29992146 14.14023491 -28 14 C-28 13.67 -28 13.34 -28 13 C-18.76 13 -9.52 13 0 13 C0 8.71 0 4.42 0 0 Z " fill="#8C8A89" transform="translate(186,8)"/>
<path d="M0 0 C9.24 0 18.48 0 28 0 C28 4.29 28 8.58 28 13 C11.83 13 -4.34 13 -21 13 C-21 10.69 -21 8.38 -21 6 C-14.07 6 -7.14 6 0 6 C0 4.02 0 2.04 0 0 Z " fill="#D6D3D0" transform="translate(158,8)"/>
<path d="M0 0 C6.93 0 13.86 0 21 0 C21.19467573 3.74975398 21.38102921 7.49960369 21.5625 11.25 C21.61857422 12.31347656 21.67464844 13.37695312 21.73242188 14.47265625 C21.78076172 15.49746094 21.82910156 16.52226563 21.87890625 17.578125 C21.9260376 18.52075195 21.97316895 19.46337891 22.02172852 20.43457031 C22 23 22 23 21 27 C16.38 27 11.76 27 7 27 C6.67 23.04 6.34 19.08 6 15 C3.03 14.505 3.03 14.505 0 14 C0 9.38 0 4.76 0 0 Z " fill="#DBD8D5" transform="translate(108,22)"/>
<path d="M0 0 C1.29292969 -0.00257812 2.58585937 -0.00515625 3.91796875 -0.0078125 C7.65731562 0.11970785 11.12851375 0.52294777 14.8125 1.125 C15.49957555 3.61564888 15.8125 5.50386292 15.8125 8.125 C16.4725 8.125 17.1325 8.125 17.8125 8.125 C18.1425 7.465 18.4725 6.805 18.8125 6.125 C19.1425 7.775 19.4725 9.425 19.8125 11.125 C18.4925 12.115 17.1725 13.105 15.8125 14.125 C16.4725 14.640625 17.1325 15.15625 17.8125 15.6875 C20.46887543 18.92495755 20.12592132 21.05052281 19.8125 25.125 C16.75003253 26.90909802 14.59170727 27.35380021 11.0625 27.25 C10.26328125 27.23195313 9.4640625 27.21390625 8.640625 27.1953125 C8.03734375 27.17210938 7.4340625 27.14890625 6.8125 27.125 C4.64800948 22.39017698 4.15598619 19.09454142 5.8125 14.125 C0.82604726 12.79527927 -4.06527466 13.05670366 -9.1875 13.125 C-9.1875 9.165 -9.1875 5.205 -9.1875 1.125 C-6.16752674 -0.38498663 -3.35707841 -0.00662799 0 0 Z " fill="#313130" transform="translate(45.1875,77.875)"/>
<path d="M0 0 C2.64 0 5.28 0 8 0 C8 4.29 8 8.58 8 13 C12.62 13 17.24 13 22 13 C22 17.95 22 22.9 22 28 C19.69 28 17.38 28 15 28 C15 32.29 15 36.58 15 41 C14.67 41 14.34 41 14 41 C14 36.71 14 32.42 14 28 C12.453125 28.2475 12.453125 28.2475 10.875 28.5 C7.51755674 28.93321848 4.37663843 29.08235703 1 29 C-0.01085428 25.65613602 -0.11543463 22.6251882 -0.09765625 19.140625 C-0.09443359 18.02558594 -0.09121094 16.91054688 -0.08789062 15.76171875 C-0.07951172 14.60285156 -0.07113281 13.44398437 -0.0625 12.25 C-0.05798828 11.07566406 -0.05347656 9.90132812 -0.04882812 8.69140625 C-0.03705094 5.79421928 -0.02060326 2.89713546 0 0 Z " fill="#92908E" transform="translate(72,36)"/>
<path d="M0 0 C2.97 0.495 2.97 0.495 6 1 C6.33 2.65 6.66 4.3 7 6 C5.68 6.33 4.36 6.66 3 7 C3 7.66 3 8.32 3 9 C4.32 9.33 5.64 9.66 7 10 C7 11.32 7 12.64 7 14 C6.01 14.33 5.02 14.66 4 15 C4.99 15.33 5.98 15.66 7 16 C7 19.96 7 23.92 7 28 C6.01 28.33 5.02 28.66 4 29 C4.99 29.33 5.98 29.66 7 30 C7 33.3 7 36.6 7 40 C5.68 40.66 4.36 41.32 3 42 C2.896875 41.2575 2.79375 40.515 2.6875 39.75 C2.18069133 36.95819873 2.18069133 36.95819873 0.4375 34.9375 C-1 33 -1 33 -1 29 C-1.33 28.67 -1.66 28.34 -2 28 C-4.26437801 28.00902143 -6.51267599 28.13262375 -8.7734375 28.2578125 C-11 28 -11 28 -12.7734375 26.7109375 C-14.76580038 23.93178164 -14.23621976 21.30707658 -14 18 C-13 15 -13 15 -11.4375 13.8125 C-7.88877617 12.62959206 -4.73298379 12.87556721 -1 13 C-1 12.01 -1 11.02 -1 10 C-2.65 9.67 -4.3 9.34 -6 9 C-6 8.34 -6 7.68 -6 7 C-4.35 6.67 -2.7 6.34 -1 6 C-0.67 4.02 -0.34 2.04 0 0 Z " fill="#333232" transform="translate(94,91)"/>
<path d="M0 0 C9.24 0 18.48 0 28 0 C28 4.29 28 8.58 28 13 C18.76 13 9.52 13 0 13 C0 8.71 0 4.42 0 0 Z " fill="#DCD9D6" transform="translate(30,8)"/>
<path d="M0 0 C9.24 0 18.48 0 28 0 C28 3.3 28 6.6 28 10 C27.34 10.66 26.68 11.32 26 12 C26 12.33 26 12.66 26 13 C17.42 13 8.84 13 0 13 C0 8.71 0 4.42 0 0 Z " fill="#C9C6C3" transform="translate(30,64)"/>
<path d="M0 0 C4.95 0 9.9 0 15 0 C15.02727345 2.66673742 15.04696948 5.33318869 15.0625 8 C15.07087891 8.74378906 15.07925781 9.48757812 15.08789062 10.25390625 C15.10966272 15.26148844 14.71541549 20.04279032 14 25 C11.69 25 9.38 25 7 25 C7 21.37 7 17.74 7 14 C4.69 14 2.38 14 0 14 C0 9.38 0 4.76 0 0 Z " fill="#DBD8D5" transform="translate(115,50)"/>
<path d="M0 0 C7.26 0 14.52 0 22 0 C21.67 4.29 21.34 8.58 21 13 C16.38 13 11.76 13 7 13 C7 10.36 7 7.72 7 5 C4.69 5 2.38 5 0 5 C0 3.35 0 1.7 0 0 Z " fill="#DDDAD7" transform="translate(151,36)"/>
<path d="M0 0 C0 3.96 0 7.92 0 12 C-1.98 12.33 -3.96 12.66 -6 13 C-6 14.65 -6 16.3 -6 18 C-8.31 18.33 -10.62 18.66 -13 19 C-13 19.66 -13 20.32 -13 21 C-10.69 21.33 -8.38 21.66 -6 22 C-6 22.99 -6 23.98 -6 25 C-9.21451269 26.60725635 -12.43612536 26.05748185 -16 26 C-16 24.35 -16 22.7 -16 21 C-15.34 21 -14.68 21 -14 21 C-14 20.34 -14 19.68 -14 19 C-14.66 18.67 -15.32 18.34 -16 18 C-15.25 12.25 -15.25 12.25 -13 10 C-10.375 9.875 -10.375 9.875 -8 10 C-8 7.36 -8 4.72 -8 2 C-9.65 2 -11.3 2 -13 2 C-13 1.67 -13 1.34 -13 1 C-8.20862412 -0.6290678 -4.94367454 -1.20577428 0 0 Z " fill="#4B4A49" transform="translate(101,79)"/>
<path d="M0 0 C2.97 0.495 2.97 0.495 6 1 C6.33 2.65 6.66 4.3 7 6 C5.68 6.33 4.36 6.66 3 7 C3 7.66 3 8.32 3 9 C4.32 9.33 5.64 9.66 7 10 C7 11.32 7 12.64 7 14 C6.01 14.33 5.02 14.66 4 15 C4.99 15.33 5.98 15.66 7 16 C6.67 18.31 6.34 20.62 6 23 C4.86111328 22.98259766 4.86111328 22.98259766 3.69921875 22.96484375 C2.70535156 22.95582031 1.71148437 22.94679688 0.6875 22.9375 C-0.29863281 22.92589844 -1.28476563 22.91429688 -2.30078125 22.90234375 C-5.09963849 22.87670138 -5.09963849 22.87670138 -8 24 C-8 20 -8 20 -7 17 C-5.68 17.33 -4.36 17.66 -3 18 C-3.33 17.34 -3.66 16.68 -4 16 C-5.65 16 -7.3 16 -9 16 C-9.33 15.34 -9.66 14.68 -10 14 C-5.545 13.505 -5.545 13.505 -1 13 C-1 12.01 -1 11.02 -1 10 C-2.65 9.67 -4.3 9.34 -6 9 C-6 8.34 -6 7.68 -6 7 C-4.35 6.67 -2.7 6.34 -1 6 C-0.67 4.02 -0.34 2.04 0 0 Z " fill="#2A2929" transform="translate(94,91)"/>
<path d="M0 0 C4.95 0 9.9 0 15 0 C14.67 4.29 14.34 8.58 14 13 C9.38 13 4.76 13 0 13 C0 8.71 0 4.42 0 0 Z " fill="#E1DEDB" transform="translate(51,50)"/>
<path d="M0 0 C4.62 0 9.24 0 14 0 C14 4.29 14 8.58 14 13 C9.38 13 4.76 13 0 13 C0 8.71 0 4.42 0 0 Z " fill="#E1DEDB" transform="translate(158,64)"/>
<path d="M0 0 C4.62 0 9.24 0 14 0 C14 4.29 14 8.58 14 13 C9.38 13 4.76 13 0 13 C0 8.71 0 4.42 0 0 Z " fill="#DAD7D4" transform="translate(15,50)"/>
<path d="M0 0 C4.62 0 9.24 0 14 0 C14 4.29 14 8.58 14 13 C9.38 13 4.76 13 0 13 C0 8.71 0 4.42 0 0 Z " fill="#E1DEDB" transform="translate(51,36)"/>
<path d="M0 0 C4.62 0 9.24 0 14 0 C14 4.29 14 8.58 14 13 C9.38 13 4.76 13 0 13 C0 8.71 0 4.42 0 0 Z " fill="#DAD7D4" transform="translate(15,36)"/>
<path d="M0 0 C4.62 0 9.24 0 14 0 C14 4.29 14 8.58 14 13 C9.38 13 4.76 13 0 13 C0 8.71 0 4.42 0 0 Z " fill="#E1DEDB" transform="translate(158,22)"/>
<path d="M0 0 C4.62 0 9.24 0 14 0 C14 4.29 14 8.58 14 13 C9.38 13 4.76 13 0 13 C0 8.71 0 4.42 0 0 Z " fill="#E0DDDA" transform="translate(115,22)"/>
<path d="M0 0 C4.62 0 9.24 0 14 0 C14 4.29 14 8.58 14 13 C9.38 13 4.76 13 0 13 C0 8.71 0 4.42 0 0 Z " fill="#E1DEDB" transform="translate(51,22)"/>
<path d="M0 0 C4.62 0 9.24 0 14 0 C14 4.29 14 8.58 14 13 C9.38 13 4.76 13 0 13 C0 8.71 0 4.42 0 0 Z " fill="#DAD7D4" transform="translate(15,22)"/>
<path d="M0 0 C4.62 0 9.24 0 14 0 C14 4.29 14 8.58 14 13 C9.38 13 4.76 13 0 13 C0 8.71 0 4.42 0 0 Z " fill="#E0DDDA" transform="translate(115,8)"/>
<path d="M0 0 C2.64 0 5.28 0 8 0 C8.05389087 1.95803507 8.09274217 3.91648909 8.125 5.875 C8.14820313 6.96554688 8.17140625 8.05609375 8.1953125 9.1796875 C8 12 8 12 6 14 C6.27942455 15.67654729 6.62331656 17.34259285 7 19 C7.03772913 20.9996441 7.04649906 23.00054061 7 25 C5.1875 26.0625 5.1875 26.0625 3 27 C2.01 26.67 1.02 26.34 0 26 C0 17.42 0 8.84 0 0 Z " fill="#5B5A59" transform="translate(172,22)"/>
<path d="M0 0 C0 1.65 0 3.3 0 5 C-0.66 5 -1.32 5 -2 5 C-2 5.66 -2 6.32 -2 7 C-1.34 7.33 -0.68 7.66 0 8 C0 8.66 0 9.32 0 10 C-3.22281282 11.61140641 -5.64502331 12.08590977 -9.1875 11.9375 C-10.445625 11.958125 -11.70375 11.97875 -13 12 C-13.66 12.99 -14.32 13.98 -15 15 C-15 10.05 -15 5.1 -15 0 C-9.63555843 -2.68222079 -5.6137557 -1.57185159 0 0 Z " fill="#383837" transform="translate(144,51)"/>
<path d="M0 0 C4.29 0 8.58 0 13 0 C13 4.29 13 8.58 13 13 C8.71 13 4.42 13 0 13 C0 8.71 0 4.42 0 0 Z " fill="#E0DEDB" transform="translate(30,64)"/>
<path d="M0 0 C4.62 0 9.24 0 14 0 C14 3.96 14 7.92 14 12 C9.38 12 4.76 12 0 12 C0 8.04 0 4.08 0 0 Z " fill="#E4E1DE" transform="translate(165,9)"/>
<path d="M0 0 C4.62 0 9.24 0 14 0 C13.67 0.99 13.34 1.98 13 3 C12.93197033 4.72795352 12.91504355 6.45835365 12.9375 8.1875 C12.958125 9.775625 12.97875 11.36375 13 13 C8.71 13 4.42 13 0 13 C0 8.71 0 4.42 0 0 Z " fill="#B3B1AF" transform="translate(187,8)"/>
<path d="M0 0 C2.31 0 4.62 0 7 0 C7 4.62 7 9.24 7 14 C2.30873358 14.93825328 -1.61667415 14.92759102 -6.3125 14.5625 C-7.05306641 14.51029297 -7.79363281 14.45808594 -8.55664062 14.40429688 C-10.37152709 14.27549848 -12.18583325 14.13856738 -14 14 C-14 18.29 -14 22.58 -14 27 C-14.33 26.01 -14.66 25.02 -15 24 C-17.01508358 23.26676204 -17.01508358 23.26676204 -19 23 C-17.68 23 -16.36 23 -15 23 C-15 20.36 -15 17.72 -15 15 C-16.98 15 -18.96 15 -21 15 C-20.67 13.68 -20.34 12.36 -20 11 C-18.02 10.67 -16.04 10.34 -14 10 C-14 10.99 -14 11.98 -14 13 C-9.38 13 -4.76 13 0 13 C0 8.71 0 4.42 0 0 Z " fill="#B7B5B3" transform="translate(172,50)"/>
<path d="M0 0 C2.31 0 4.62 0 7 0 C7 4.29 7 8.58 7 13 C5.68 13 4.36 13 3 13 C4.32 13.66 5.64 14.32 7 15 C7 16.65 7 18.3 7 20 C5.68 20 4.36 20 3 20 C2.67 20.66 2.34 21.32 2 22 C-0.27412177 19.53636808 -0.97891828 18.34433471 -1.1875 14.9375 C-1.0946875 13.4834375 -1.0946875 13.4834375 -1 12 C-1 9.9998915 -1.02084011 7.99967459 -1.0625 6 C-1 3 -1 3 0 0 Z " fill="#363534" transform="translate(51,106)"/>
<path d="M0 0 C2.27024968 -0.08097324 4.54132075 -0.13917704 6.8125 -0.1875 C8.07707031 -0.22230469 9.34164062 -0.25710937 10.64453125 -0.29296875 C14 0 14 0 15.8125 1.4375 C16.204375 1.953125 16.59625 2.46875 17 3 C19.09989652 4.17574711 19.09989652 4.17574711 21 5 C21 7.31 21 9.62 21 12 C18.53606281 13.55136786 17.31910854 14.03039129 14.375 13.75 C12 13 12 13 10 11 C10 10.34 10 9.68 10 9 C10.66 9 11.32 9 12 9 C12 8.34 12 7.68 12 7 C11.34 6.67 10.68 6.34 10 6 C9.608125 5.34 9.21625 4.68 8.8125 4 C6.20676082 1.1247016 3.75369255 1.28329755 0 1 C0 0.67 0 0.34 0 0 Z " fill="#373635" transform="translate(158,77)"/>
<path d="M0 0 C2.64 0 5.28 0 8 0 C8.05389087 1.95803507 8.09274217 3.91648909 8.125 5.875 C8.14820312 6.96554688 8.17140625 8.05609375 8.1953125 9.1796875 C8 12 8 12 6 14 C6.27942455 15.67654729 6.62331656 17.34259285 7 19 C7.03772913 20.9996441 7.04649906 23.00054061 7 25 C6.34 25.33 5.68 25.66 5 26 C4.34 25.34 3.68 24.68 3 24 C3 23.34 3 22.68 3 22 C3.66 22 4.32 22 5 22 C5 21.34 5 20.68 5 20 C4.34 19.67 3.68 19.34 3 19 C2.66666667 17.33333333 2.33333333 15.66666667 2 14 C1.34 13.67 0.68 13.34 0 13 C0 8.71 0 4.42 0 0 Z " fill="#3A3A39" transform="translate(108,78)"/>
<path d="M0 0 C2.31 0 4.62 0 7 0 C7 8.33333333 7 16.66666667 7 25 C6.34 25.33 5.68 25.66 5 26 C4.34 25.34 3.68 24.68 3 24 C3 23.34 3 22.68 3 22 C3.66 22 4.32 22 5 22 C5 21.34 5 20.68 5 20 C4.34 19.67 3.68 19.34 3 19 C2.66666667 17.33333333 2.33333333 15.66666667 2 14 C1.34 13.67 0.68 13.34 0 13 C0 8.71 0 4.42 0 0 Z " fill="#3E3D3D" transform="translate(8,50)"/>
<path d="M0 0 C0 0.66 0 1.32 0 2 C0.66 2.33 1.32 2.66 2 3 C1.67 4.65 1.34 6.3 1 8 C1.66 8 2.32 8 3 8 C3.33 7.34 3.66 6.68 4 6 C4.33 6.66 4.66 7.32 5 8 C5.99 8.66 6.98 9.32 8 10 C8 10.66 8 11.32 8 12 C2.92928099 12.71167986 -1.88208358 13.10662326 -7 13 C-7 9.04 -7 5.08 -7 1 C-4.53721199 -0.231394 -2.7204945 -0.07159196 0 0 Z " fill="#302F2F" transform="translate(43,78)"/>
<path d="M0 0 C1.67542976 0.28604898 3.34385343 0.61781233 5 1 C5.87790928 4.73111445 6.34062647 8.16795218 6 12 C5.01 12.66 4.02 13.32 3 14 C3.99 14.33 4.98 14.66 6 15 C6 15.99 6 16.98 6 18 C4.02 18.99 4.02 18.99 2 20 C1.67 18.68 1.34 17.36 1 16 C0.34 16 -0.32 16 -1 16 C-1 15.34 -1 14.68 -1 14 C-5.95 14 -10.9 14 -16 14 C-16 13.67 -16 13.34 -16 13 C-11.05 12.67 -6.1 12.34 -1 12 C-1.020625 10.205625 -1.04125 8.41125 -1.0625 6.5625 C-1.0838122 4.70833878 -1.07226502 2.85287502 -1 1 C-0.67 0.67 -0.34 0.34 0 0 Z " fill="#504F4F" transform="translate(31,22)"/>
<path d="M0 0 C2.31 0 4.62 0 7 0 C7 4.29 7 8.58 7 13 C11.62 13 16.24 13 21 13 C21 13.33 21 13.66 21 14 C17.87549468 14.19645093 14.75038555 14.38063489 11.625 14.5625 C10.29082031 14.64661133 10.29082031 14.64661133 8.9296875 14.73242188 C7.65351562 14.80493164 7.65351562 14.80493164 6.3515625 14.87890625 C5.56604004 14.9260376 4.78051758 14.97316895 3.97119141 15.02172852 C2 15 2 15 0 14 C0 9.38 0 4.76 0 0 Z " fill="#B9B6B4" transform="translate(108,22)"/>
<path d="M0 0 C1.79133978 -0.05391993 3.58313899 -0.09275571 5.375 -0.125 C6.37273437 -0.14820313 7.37046875 -0.17140625 8.3984375 -0.1953125 C11 0 11 0 13 2 C11.68 2 10.36 2 9 2 C9 2.66 9 3.32 9 4 C10.32 3.67 11.64 3.34 13 3 C13 5.64 13 8.28 13 11 C8.71 11 4.42 11 0 11 C0 8.69 0 6.38 0 4 C1.32 3.34 2.64 2.68 4 2 C2.68 1.34 1.36 0.68 0 0 Z " fill="#B8B6B3" transform="translate(73,50)"/>
<path d="M0 0 C0.556875 0.144375 1.11375 0.28875 1.6875 0.4375 C4.50492615 1.12281987 7.11111385 1.0656565 10 1 C10 1.66 10 2.32 10 3 C10.66 3.66 11.32 4.32 12 5 C12 5.99 12 6.98 12 8 C10.02 8.33 8.04 8.66 6 9 C7.32 9.66 8.64 10.32 10 11 C10 11.66 10 12.32 10 13 C2.52500734 13.36762259 2.52500734 13.36762259 0.25390625 11.77734375 C-1.3532753 9.49925153 -1.34000788 8.13824193 -1.25 5.375 C-1.23453125 4.57835938 -1.2190625 3.78171875 -1.203125 2.9609375 C-1 1 -1 1 0 0 Z " fill="#242423" transform="translate(74,78)"/>
<path d="M0 0 C0.33 0 0.66 0 1 0 C1.02887236 3.81248426 1.04675492 7.6249407 1.0625 11.4375 C1.07087891 12.52611328 1.07925781 13.61472656 1.08789062 14.73632812 C1.09111328 15.77080078 1.09433594 16.80527344 1.09765625 17.87109375 C1.10289307 18.82943115 1.10812988 19.78776855 1.11352539 20.77514648 C1 23 1 23 0 24 C-2.33297433 24.04092937 -4.66705225 24.04241723 -7 24 C-7 20.04 -7 16.08 -7 12 C-3.535 11.505 -3.535 11.505 0 11 C0 10.34 0 9.68 0 9 C-2.31 9 -4.62 9 -7 9 C-7 8.67 -7 8.34 -7 8 C-4.69 8 -2.38 8 0 8 C0 5.36 0 2.72 0 0 Z " fill="#41403F" transform="translate(129,67)"/>
<path d="M0 0 C0.33 0 0.66 0 1 0 C1.02886537 4.31248609 1.04675255 8.62494762 1.0625 12.9375 C1.07087891 14.16919922 1.07925781 15.40089844 1.08789062 16.66992188 C1.09111328 17.83974609 1.09433594 19.00957031 1.09765625 20.21484375 C1.10289307 21.29886475 1.10812988 22.38288574 1.11352539 23.49975586 C1 26 1 26 0 27 C-2.33297433 27.04092937 -4.66705225 27.04241723 -7 27 C-7 22.71 -7 18.42 -7 14 C-5.02 14 -3.04 14 -1 14 C-0.67 9.38 -0.34 4.76 0 0 Z " fill="#40403F" transform="translate(179,50)"/>
<path d="M0 0 C2.31 0 4.62 0 7 0 C7 2.64 7 5.28 7 8 C11.62 8 16.24 8 21 8 C21 8.33 21 8.66 21 9 C16.38 9 11.76 9 7 9 C7 10.32 7 11.64 7 13 C4.69 13 2.38 13 0 13 C0 8.71 0 4.42 0 0 Z " fill="#8B8988" transform="translate(151,41)"/>
<path d="M0 0 C2.64 0 5.28 0 8 0 C8 4.29 8 8.58 8 13 C5.36 13 2.72 13 0 13 C0 8.71 0 4.42 0 0 Z " fill="#BBB8B6" transform="translate(72,36)"/>
<path d="M0 0 C2.31 0.33 4.62 0.66 7 1 C7.77287314 5.05758399 8.19223268 8.86699731 8 13 C7.67 13.33 7.34 13.66 7 14 C4.69 14 2.38 14 0 14 C0 9.38 0 4.76 0 0 Z " fill="#3D3C3B" transform="translate(22,77)"/>
<path d="M0 0 C2.31 0 4.62 0 7 0 C8.35015859 4.05047576 7.62084998 6.7920168 7 11 C9.31 11 11.62 11 14 11 C14 11.33 14 11.66 14 12 C9.38 12.33 4.76 12.66 0 13 C0 8.71 0 4.42 0 0 Z " fill="#5F5E5D" transform="translate(65,36)"/>
<path d="M0 0 C2.64 0 5.28 0 8 0 C8.02686553 1.97909398 8.04633375 3.95828971 8.0625 5.9375 C8.07410156 7.03964844 8.08570312 8.14179688 8.09765625 9.27734375 C8 12 8 12 7 13 C4.66702567 13.04092937 2.33294775 13.04241723 0 13 C0 8.71 0 4.42 0 0 Z " fill="#545352" transform="translate(65,22)"/>
<path d="M0 0 C4.62 0 9.24 0 14 0 C15.15866723 4.63466892 14.70010994 7.33260039 14 12 C11.69 12 9.38 12 7 12 C7 8.37 7 4.74 7 1 C4.69 1 2.38 1 0 1 C0 0.67 0 0.34 0 0 Z " fill="#A09D9B" transform="translate(115,63)"/>
<path d="M0 0 C1.134375 0.020625 2.26875 0.04125 3.4375 0.0625 C3.46436553 2.04159398 3.48383375 4.02078971 3.5 6 C3.51160156 7.10214844 3.52320313 8.20429687 3.53515625 9.33984375 C3.4375 12.0625 3.4375 12.0625 2.4375 13.0625 C0.10452567 13.10342937 -2.22955225 13.10491723 -4.5625 13.0625 C-4.58936553 11.08340602 -4.60883375 9.10421029 -4.625 7.125 C-4.63660156 6.02285156 -4.64820313 4.92070313 -4.66015625 3.78515625 C-4.51237367 -0.33502211 -4.25789233 0.07469987 0 0 Z " fill="#41403F" transform="translate(40.5625,91.9375)"/>
<path d="M0 0 C2.31 0 4.62 0 7 0 C7 4.29 7 8.58 7 13 C5.02 13 3.04 13 1 13 C-1.16449052 8.26517698 -1.65651381 4.96954142 0 0 Z " fill="#5A5957" transform="translate(151,78)"/>
<path d="M0 0 C2.31 0 4.62 0 7 0 C7 4.29 7 8.58 7 13 C4.69 13 2.38 13 0 13 C0 8.71 0 4.42 0 0 Z " fill="#E3E0DD" transform="translate(165,50)"/>
<path d="M0 0 C2.31 0 4.62 0 7 0 C7 4.29 7 8.58 7 13 C4.69 13 2.38 13 0 13 C0 8.71 0 4.42 0 0 Z " fill="#E3E0DD" transform="translate(115,50)"/>
<path d="M0 0 C2.31 0 4.62 0 7 0 C7 4.29 7 8.58 7 13 C4.69 13 2.38 13 0 13 C0 8.71 0 4.42 0 0 Z " fill="#3C3B3A" transform="translate(8,36)"/>
<path d="M0 0 C2.31 0 4.62 0 7 0 C7 4.29 7 8.58 7 13 C4.69 13 2.38 13 0 13 C0 8.71 0 4.42 0 0 Z " fill="#E3E0DD" transform="translate(115,36)"/>
<path d="M0 0 C2.31 0 4.62 0 7 0 C7 4.29 7 8.58 7 13 C4.69 13 2.38 13 0 13 C0 8.71 0 4.42 0 0 Z " fill="#3C3B3A" transform="translate(8,22)"/>
<path d="M0 0 C2.31 0 4.62 0 7 0 C7 4.29 7 8.58 7 13 C4.69 13 2.38 13 0 13 C0 8.71 0 4.42 0 0 Z " fill="#DCD9D6" transform="translate(79,22)"/>
<path d="M0 0 C2.31 0 4.62 0 7 0 C7 4.29 7 8.58 7 13 C4.69 13 2.38 13 0 13 C0 8.71 0 4.42 0 0 Z " fill="#DCD9D6" transform="translate(79,8)"/>
<path d="M0 0 C2.31 0 4.62 0 7 0 C7 4.29 7 8.58 7 13 C4.69 13 2.38 13 0 13 C0 8.71 0 4.42 0 0 Z " fill="#DDDAD7" transform="translate(22,8)"/>
<path d="M0 0 C2.97 0.495 2.97 0.495 6 1 C6.33 2.65 6.66 4.3 7 6 C5.68 6.33 4.36 6.66 3 7 C3 7.66 3 8.32 3 9 C4.32 9.33 5.64 9.66 7 10 C7 11.32 7 12.64 7 14 C5.02 14 3.04 14 1 14 C1 13.34 1 12.68 1 12 C0.34 11.67 -0.32 11.34 -1 11 C-1 10.67 -1 10.34 -1 10 C-2.65 9.67 -4.3 9.34 -6 9 C-6 8.34 -6 7.68 -6 7 C-4.35 6.67 -2.7 6.34 -1 6 C-0.67 4.02 -0.34 2.04 0 0 Z " fill="#313030" transform="translate(94,91)"/>
<path d="M0 0 C1.98 0 3.96 0 6 0 C6.33 1.65 6.66 3.3 7 5 C6.01 5.495 6.01 5.495 5 6 C5 6.66 5 7.32 5 8 C5.66 8.33 6.32 8.66 7 9 C7 9.66 7 10.32 7 11 C2.25 13 2.25 13 0 13 C-0.33 11.68 -0.66 10.36 -1 9 C-2.65 8.67 -4.3 8.34 -6 8 C-6 7.34 -6 6.68 -6 6 C-4.35 5.67 -2.7 5.34 -1 5 C-0.67 3.35 -0.34 1.7 0 0 Z " fill="#212121" transform="translate(194,36)"/>
<path d="M0 0 C1.33841672 0.31229724 2.67139075 0.64830932 4 1 C4.99 1 5.98 1 7 1 C9 3 9 3 9 5 C7.35 5.33 5.7 5.66 4 6 C4 6.66 4 7.32 4 8 C5.65 8.33 7.3 8.66 9 9 C9 9.99 9 10.98 9 12 C5.6875 12.6875 5.6875 12.6875 2 13 C0.28515625 11.80859375 0.28515625 11.80859375 -1 10 C-1.328125 7.7734375 -1.328125 7.7734375 -1.25 5.375 C-1.23453125 4.57835938 -1.2190625 3.78171875 -1.203125 2.9609375 C-1 1 -1 1 0 0 Z " fill="#353534" transform="translate(74,92)"/>
<path d="M0 0 C2.31 0 4.62 0 7 0 C7 4.29 7 8.58 7 13 C4.69 13 2.38 13 0 13 C0 8.71 0 4.42 0 0 Z " fill="#3C3B3A" transform="translate(108,36)"/>
<path d="M0 0 C1.98 0 3.96 0 6 0 C6 4.29 6 8.58 6 13 C3.69 13 1.38 13 -1 13 C-1.02686553 11.02090602 -1.04633375 9.04171029 -1.0625 7.0625 C-1.07410156 5.96035156 -1.08570313 4.85820312 -1.09765625 3.72265625 C-1 1 -1 1 0 0 Z " fill="#3C3B3A" transform="translate(16,8)"/>
<path d="M0 0 C2.00720923 0.28674418 4.0085944 0.61866701 6 1 C6 4.96 6 8.92 6 13 C3.69 13 1.38 13 -1 13 C-1.02686553 11.02090602 -1.04633375 9.04171029 -1.0625 7.0625 C-1.07410156 5.96035156 -1.08570312 4.85820313 -1.09765625 3.72265625 C-1 1 -1 1 0 0 Z " fill="#4D4C4B" transform="translate(95,78)"/>
<path d="M0 0 C1.65 0 3.3 0 5 0 C7.60018816 3.90028225 7.15085514 7.47434569 7 12 C5.1875 13.0625 5.1875 13.0625 3 14 C2.01 13.67 1.02 13.34 0 13 C0 8.71 0 4.42 0 0 Z " fill="#272626" transform="translate(172,35)"/>
<path d="M0 0 C2.31 0 4.62 0 7 0 C7 3.96 7 7.92 7 12 C4.69 12 2.38 12 0 12 C0 8.04 0 4.08 0 0 Z " fill="#E4E1DE" transform="translate(165,37)"/>
<path d="M0 0 C1.134375 0.020625 2.26875 0.04125 3.4375 0.0625 C3.54574843 1.6651782 3.62320645 3.26995748 3.6875 4.875 C3.73390625 5.76832031 3.7803125 6.66164063 3.828125 7.58203125 C3.4375 10.0625 3.4375 10.0625 1.609375 11.88671875 C-0.5625 13.0625 -0.5625 13.0625 -3.5625 13.0625 C-4.19396072 9.03693789 -4.80251982 5.14283686 -4.5625 1.0625 C-3.5625 0.0625 -3.5625 0.0625 0 0 Z " fill="#232222" transform="translate(33.5625,77.9375)"/>
<path d="M0 0 C2.31 0 4.62 0 7 0 C7.33 1.65 7.66 3.3 8 5 C7.01 5.495 7.01 5.495 6 6 C6 6.66 6 7.32 6 8 C6.66 8.33 7.32 8.66 8 9 C8 9.66 8 10.32 8 11 C3.375 13.125 3.375 13.125 0 12 C0 8.04 0 4.08 0 0 Z " fill="#2E2D2D" transform="translate(36,120)"/>
<path d="M0 0 C2.31 0 4.62 0 7 0 C7.33 1.65 7.66 3.3 8 5 C7.01 5.495 7.01 5.495 6 6 C6 6.66 6 7.32 6 8 C6.66 8.33 7.32 8.66 8 9 C8 9.66 8 10.32 8 11 C3.375 13.125 3.375 13.125 0 12 C0 8.04 0 4.08 0 0 Z " fill="#2E2D2D" transform="translate(36,106)"/>
<path d="M0 0 C2.31 0 4.62 0 7 0 C7.33 1.65 7.66 3.3 8 5 C7.01 5.495 7.01 5.495 6 6 C6 6.66 6 7.32 6 8 C6.66 8.33 7.32 8.66 8 9 C8 9.66 8 10.32 8 11 C3.375 13.125 3.375 13.125 0 12 C0 8.04 0 4.08 0 0 Z " fill="#2E2D2D" transform="translate(186,64)"/>
<path d="M0 0 C2.31 0 4.62 0 7 0 C7.33 1.65 7.66 3.3 8 5 C7.01 5.495 7.01 5.495 6 6 C6 6.66 6 7.32 6 8 C6.66 8.33 7.32 8.66 8 9 C8 9.66 8 10.32 8 11 C3.375 13.125 3.375 13.125 0 12 C0 8.04 0 4.08 0 0 Z " fill="#2E2D2D" transform="translate(186,50)"/>
<path d="M0 0 C2.31 0.33 4.62 0.66 7 1 C7.38218767 2.65614657 7.71395102 4.32457024 8 6 C7 7 7 7 4.4375 7.0625 C3.2309375 7.0315625 3.2309375 7.0315625 2 7 C2 7.66 2 8.32 2 9 C3.65 9 5.3 9 7 9 C7.5625 10.9375 7.5625 10.9375 8 13 C7.67 13.33 7.34 13.66 7 14 C4.69 14 2.38 14 0 14 C0 9.38 0 4.76 0 0 Z " fill="#4B4A49" transform="translate(186,35)"/>
<path d="M0 0 C1.98 0 3.96 0 6 0 C6.33 4.29 6.66 8.58 7 13 C4.69 13 2.38 13 0 13 C0 8.71 0 4.42 0 0 Z " fill="#E2DFDC" transform="translate(187,8)"/>
<path d="M0 0 C1.98 0 3.96 0 6 0 C6 4.29 6 8.58 6 13 C4.02 13 2.04 13 0 13 C0 8.71 0 4.42 0 0 Z " fill="#E3E0DD" transform="translate(23,64)"/>
<path d="M0 0 C1.98 0 3.96 0 6 0 C6 4.29 6 8.58 6 13 C4.02 13 2.04 13 0 13 C0 8.71 0 4.42 0 0 Z " fill="#E3E0DD" transform="translate(87,50)"/>
<path d="M0 0 C1.98 0 3.96 0 6 0 C6 4.29 6 8.58 6 13 C4.02 13 2.04 13 0 13 C0 8.71 0 4.42 0 0 Z " fill="#E3E0DD" transform="translate(23,50)"/>
<path d="M0 0 C1.98 0 3.96 0 6 0 C6 4.29 6 8.58 6 13 C4.02 13 2.04 13 0 13 C0 8.71 0 4.42 0 0 Z " fill="#E3E0DD" transform="translate(87,36)"/>
<path d="M0 0 C1.98 0 3.96 0 6 0 C6 4.29 6 8.58 6 13 C4.02 13 2.04 13 0 13 C0 8.71 0 4.42 0 0 Z " fill="#E3E0DD" transform="translate(80,36)"/>
<path d="M0 0 C1.98 0 3.96 0 6 0 C6 4.29 6 8.58 6 13 C4.02 13 2.04 13 0 13 C0 8.71 0 4.42 0 0 Z " fill="#E3E0DD" transform="translate(23,36)"/>
<path d="M0 0 C1.98 0 3.96 0 6 0 C6 4.29 6 8.58 6 13 C4.02 13 2.04 13 0 13 C0 8.71 0 4.42 0 0 Z " fill="#E3E0DD" transform="translate(87,22)"/>
<path d="M0 0 C1.98 0 3.96 0 6 0 C6 4.29 6 8.58 6 13 C4.02 13 2.04 13 0 13 C0 8.71 0 4.42 0 0 Z " fill="#E3E0DD" transform="translate(23,22)"/>
<path d="M0 0 C1.98 0 3.96 0 6 0 C6 4.29 6 8.58 6 13 C4.02 13 2.04 13 0 13 C0 8.71 0 4.42 0 0 Z " fill="#E3E0DD" transform="translate(180,8)"/>
<path d="M0 0 C0 3.96 0 7.92 0 12 C-1.98 12.99 -1.98 12.99 -4 14 C-4 14.66 -4 15.32 -4 16 C-5.32 15.67 -6.64 15.34 -8 15 C-8 13 -8 13 -6 11 C-6 10.34 -6 9.68 -6 9 C-6.99 8.67 -7.98 8.34 -9 8 C-9 7.34 -9 6.68 -9 6 C-8.01 5.34 -7.02 4.68 -6 4 C-6 2.68 -6 1.36 -6 0 C-4 -1 -4 -1 0 0 Z " fill="#1F1E1E" transform="translate(87,92)"/>
<path d="M0 0 C0 1.98 0 3.96 0 6 C-4.95 6 -9.9 6 -15 6 C-15 4.35 -15 2.7 -15 1 C-9.94997778 -0.03590199 -5.12583611 -0.10251672 0 0 Z " fill="#555453" transform="translate(86,64)"/>
<path d="M0 0 C0 3.96 0 7.92 0 12 C-1.65 12 -3.3 12 -5 12 C-7.60018816 8.09971775 -7.15085514 4.52565431 -7 0 C-5 -1 -5 -1 0 0 Z " fill="#454443" transform="translate(157,65)"/>
<path d="M0 0 C1.98 0 3.96 0 6 0 C6 3.96 6 7.92 6 12 C4.02 12 2.04 12 0 12 C0 8.04 0 4.08 0 0 Z " fill="#E4E1DE" transform="translate(101,65)"/>
<path d="M0 0 C1.98 0 3.96 0 6 0 C6 3.96 6 7.92 6 12 C4.02 12 2.04 12 0 12 C0 8.04 0 4.08 0 0 Z " fill="#E4E1DE" transform="translate(94,65)"/>
<path d="M0 0 C1.98 0 3.96 0 6 0 C6 3.96 6 7.92 6 12 C4.02 12 2.04 12 0 12 C0 8.04 0 4.08 0 0 Z " fill="#E4E1DE" transform="translate(44,65)"/>
<path d="M0 0 C1.98 0 3.96 0 6 0 C6 3.96 6 7.92 6 12 C4.02 12 2.04 12 0 12 C0 8.04 0 4.08 0 0 Z " fill="#E4E1DE" transform="translate(51,9)"/>
<path d="M0 0 C1.98 0 3.96 0 6 0 C6 3.96 6 7.92 6 12 C4.02 12 2.04 12 0 12 C0 8.04 0 4.08 0 0 Z " fill="#E4E1DE" transform="translate(44,9)"/>
<path d="M0 0 C4.95 0 9.9 0 15 0 C15 1.65 15 3.3 15 5 C10.05 5 5.1 5 0 5 C0 3.35 0 1.7 0 0 Z " fill="#5B5A59" transform="translate(71,72)"/>
<path d="M0 0 C2.31 0 4.62 0 7 0 C6.67 0.99 6.34 1.98 6 3 C5.93197033 4.72795352 5.91504355 6.45835365 5.9375 8.1875 C5.95103516 9.53908203 5.95103516 9.53908203 5.96484375 10.91796875 C5.97644531 11.60503906 5.98804687 12.29210937 6 13 C3.69 13 1.38 13 -1 13 C-0.67 8.71 -0.34 4.42 0 0 Z " fill="#B6B3B1" transform="translate(87,78)"/>
<path d="M0 0 C2.31 0 4.62 0 7 0 C6.67 0.99 6.34 1.98 6 3 C5.93197033 4.72795352 5.91504355 6.45835365 5.9375 8.1875 C5.95103516 9.53908203 5.95103516 9.53908203 5.96484375 10.91796875 C5.97644531 11.60503906 5.98804688 12.29210938 6 13 C3.69 13 1.38 13 -1 13 C-0.67 8.71 -0.34 4.42 0 0 Z " fill="#B6B3B1" transform="translate(137,22)"/>
<path d="M0 0 C0.99 0.33 1.98 0.66 3 1 C3 2.65 3 4.3 3 6 C2.34 6 1.68 6 1 6 C1 6.66 1 7.32 1 8 C1.66 8.33 2.32 8.66 3 9 C3 9.66 3 10.32 3 11 C-1.75 13 -1.75 13 -4 13 C-6.21538462 6.6 -6.21538462 6.6 -5.125 3.5625 C-4.75375 3.046875 -4.3825 2.53125 -4 2 C-2.68 2.33 -1.36 2.66 0 3 C0 2.01 0 1.02 0 0 Z " fill="#232222" transform="translate(141,50)"/>
<path d="M0 0 C0.33 0 0.66 0 1 0 C1 4.29 1 8.58 1 13 C10.24 13 19.48 13 29 13 C29 13.33 29 13.66 29 14 C15.635 14.495 15.635 14.495 2 15 C2 18.63 2 22.26 2 26 C1.34 26.33 0.68 26.66 0 27 C0 22.71 0 18.42 0 14 C-2.31 14 -4.62 14 -7 14 C-7 13.67 -7 13.34 -7 13 C-4.69 13 -2.38 13 0 13 C0 8.71 0 4.42 0 0 Z " fill="#8A8887" transform="translate(29,8)"/>
<path d="M0 0 C1.98 0 3.96 0 6 0 C6 3.63 6 7.26 6 11 C4.35 11 2.7 11 1 11 C0.34 10.34 -0.32 9.68 -1 9 C-0.9765625 6.8359375 -0.9765625 6.8359375 -0.625 4.375 C-0.51414063 3.55773437 -0.40328125 2.74046875 -0.2890625 1.8984375 C-0.19367188 1.27195312 -0.09828125 0.64546875 0 0 Z " fill="#B1AFAC" transform="translate(187,22)"/>
<path d="M0 0 C0 0.99 0 1.98 0 3 C6.93 3 13.86 3 21 3 C20.67 3.66 20.34 4.32 20 5 C13.4 4.67 6.8 4.34 0 4 C0 8.29 0 12.58 0 17 C-0.33 16.01 -0.66 15.02 -1 14 C-3.01508358 13.26676204 -3.01508358 13.26676204 -5 13 C-3.68 13 -2.36 13 -1 13 C-1 10.36 -1 7.72 -1 5 C-2.98 5 -4.96 5 -7 5 C-6.67 3.68 -6.34 2.36 -6 1 C-3.92446352 0.4465236 -2.15634036 0 0 0 Z " fill="#82807F" transform="translate(158,60)"/>
<path d="M0 0 C1.98 0 3.96 0 6 0 C6.95024979 3.69541586 6.95024979 6.30458414 6 10 C4.02 10 2.04 10 0 10 C0 6.7 0 3.4 0 0 Z " fill="#3F3E3D" transform="translate(194,25)"/>
<path d="M0 0 C1.9375 0.75 1.9375 0.75 4 2 C5.20424439 4.91025727 5.32813394 7.88272752 5 11 C4.01 11.66 3.02 12.32 2 13 C-0.07493465 11.30729015 -0.93070018 10.47024878 -1.328125 7.7734375 C-1.30234375 6.98195313 -1.2765625 6.19046875 -1.25 5.375 C-1.23453125 4.57835938 -1.2190625 3.78171875 -1.203125 2.9609375 C-1 1 -1 1 0 0 Z " fill="#343433" transform="translate(124,106)"/>
<path d="M0 0 C1.9375 0.75 1.9375 0.75 4 2 C5.20424439 4.91025727 5.32813394 7.88272752 5 11 C4.01 11.66 3.02 12.32 2 13 C-0.07493465 11.30729015 -0.93070018 10.47024878 -1.328125 7.7734375 C-1.30234375 6.98195313 -1.2765625 6.19046875 -1.25 5.375 C-1.23453125 4.57835938 -1.2190625 3.78171875 -1.203125 2.9609375 C-1 1 -1 1 0 0 Z " fill="#343433" transform="translate(24,106)"/>
<path d="M0 0 C1.9375 0.75 1.9375 0.75 4 2 C5.20424439 4.91025727 5.32813394 7.88272752 5 11 C4.01 11.66 3.02 12.32 2 13 C-0.07493465 11.30729015 -0.93070018 10.47024878 -1.328125 7.7734375 C-1.30234375 6.98195313 -1.2765625 6.19046875 -1.25 5.375 C-1.23453125 4.57835938 -1.2190625 3.78171875 -1.203125 2.9609375 C-1 1 -1 1 0 0 Z " fill="#343433" transform="translate(124,92)"/>
<path d="M0 0 C1.9375 0.75 1.9375 0.75 4 2 C5.20424439 4.91025727 5.32813394 7.88272752 5 11 C4.01 11.66 3.02 12.32 2 13 C-0.07493465 11.30729015 -0.93070018 10.47024878 -1.328125 7.7734375 C-1.30234375 6.98195313 -1.2765625 6.19046875 -1.25 5.375 C-1.23453125 4.57835938 -1.2190625 3.78171875 -1.203125 2.9609375 C-1 1 -1 1 0 0 Z " fill="#343433" transform="translate(24,92)"/>
<path d="M0 0 C0 5.28 0 10.56 0 16 C-3.76624671 17.25541557 -5.37188934 16.37061958 -9 15 C-8 12 -8 12 -6 10 C-3.375 9.875 -3.375 9.875 -1 10 C-1 7.36 -1 4.72 -1 2 C-2.65 2 -4.3 2 -6 2 C-6 1.67 -6 1.34 -6 1 C-1.125 0 -1.125 0 0 0 Z " fill="#747271" transform="translate(144,23)"/>
<path d="M0 0 C0 2.64 0 5.28 0 8 C-2.33333333 8 -4.66666667 8 -7 8 C-7.33 5.69 -7.66 3.38 -8 1 C-5.29120665 -0.35439668 -2.99066732 -0.06501451 0 0 Z " fill="#212121" transform="translate(51,78)"/>
<path d="M0 0 C0.33 1.32 0.66 2.64 1 4 C0.01 4 -0.98 4 -2 4 C-4.15680385 4.79603484 -4.15680385 4.79603484 -4.6875 6.8125 C-5.02688538 9.18819767 -4.72856341 10.73335829 -4 13 C-4.99 13 -5.98 13 -7 13 C-7 8.71 -7 4.42 -7 0 C-4.3333581 -1.33332095 -2.83319697 -0.67102033 0 0 Z " fill="#2B2B2A" transform="translate(72,49)"/>
<path d="M0 0 C2.64 0 5.28 0 8 0 C6.68 0.33 5.36 0.66 4 1 C5.32 1.66 6.64 2.32 8 3 C8 4.65 8 6.3 8 8 C6.68 8 5.36 8 4 8 C3.67 8.66 3.34 9.32 3 10 C0.64551835 7.44931155 0.01672076 6.28982642 -0.1875 2.75 C-0.125625 1.8425 -0.06375 0.935 0 0 Z " fill="#343333" transform="translate(50,118)"/>
<path d="M0 0 C2.31 0 4.62 0 7 0 C7.93131785 3.04794934 8.29757762 4.42050674 6.8125 7.3125 C5 9 5 9 1 9 C1.020625 8.2575 1.04125 7.515 1.0625 6.75 C1.00671312 4.29537721 0.6930096 2.33890739 0 0 Z " fill="#212120" transform="translate(129,35)"/>
<path d="M0 0 C0.66 0 1.32 0 2 0 C2.66 0.99 3.32 1.98 4 3 C4.99 3.33 5.98 3.66 7 4 C6.34 4 5.68 4 5 4 C5 4.66 5 5.32 5 6 C5.66 6.33 6.32 6.66 7 7 C7 7.66 7 8.32 7 9 C2.25 11 2.25 11 0 11 C0 7.37 0 3.74 0 0 Z " fill="#2B2B2A" transform="translate(30,38)"/>
<path d="M0 0 C1.67542976 0.28604898 3.34385343 0.61781233 5 1 C6 5.75 6 5.75 6 8 C3.69 8.33 1.38 8.66 -1 9 C-1.09765625 2.84765625 -1.09765625 2.84765625 -1 1 C-0.67 0.67 -0.34 0.34 0 0 Z " fill="#484746" transform="translate(31,22)"/>
<path d="M0 0 C2.64 0 5.28 0 8 0 C8.66 1.32 9.32 2.64 10 4 C8 6 8 6 4.375 6.125 C3.26125 6.08375 2.1475 6.0425 1 6 C0.67 4.02 0.34 2.04 0 0 Z " fill="#464544" transform="translate(51,92)"/>
<path d="M0 0 C2 4 2 4 1.625 6.25 C1.41875 6.8275 1.2125 7.405 1 8 C2.98 8 4.96 8 7 8 C7.5625 9.9375 7.5625 9.9375 8 12 C7 13 7 13 3.4375 13.0625 C2.303125 13.041875 1.16875 13.02125 0 13 C0 8.71 0 4.42 0 0 Z " fill="#5B5A59" transform="translate(172,64)"/>
<path d="M0 0 C0.53625 0.165 1.0725 0.33 1.625 0.5 C4.45886009 1.09660212 7.1119806 1.0656368 10 1 C10 1.66 10 2.32 10 3 C10.66 3.66 11.32 4.32 12 5 C9.23749964 6.38125018 7.05268901 6.19079306 4 6 C3.34 5.34 2.68 4.68 2 4 C1.67 4.66 1.34 5.32 1 6 C0.34 5.67 -0.32 5.34 -1 5 C-0.67 3.35 -0.34 1.7 0 0 Z " fill="#393837" transform="translate(74,78)"/>
<path d="M0 0 C2.31 0 4.62 0 7 0 C7.125 2.375 7.125 2.375 7 5 C6.34 5.66 5.68 6.32 5 7 C5 7.33 5 7.66 5 8 C3.35 8 1.7 8 0 8 C0 5.36 0 2.72 0 0 Z " fill="#B4B2AF" transform="translate(51,69)"/>
<path d="M0 0 C2.31 0 4.62 0 7 0 C7.125 2.375 7.125 2.375 7 5 C6.34 5.66 5.68 6.32 5 7 C5 7.33 5 7.66 5 8 C3.35 8 1.7 8 0 8 C0 5.36 0 2.72 0 0 Z " fill="#B6B4B1" transform="translate(151,55)"/>
<path d="M0 0 C2.31 0 4.62 0 7 0 C7.125 2.375 7.125 2.375 7 5 C6.34 5.66 5.68 6.32 5 7 C5 7.33 5 7.66 5 8 C3.35 8 1.7 8 0 8 C0 5.36 0 2.72 0 0 Z " fill="#B6B4B1" transform="translate(151,41)"/>
<path d="M0 0 C2.97 0.495 2.97 0.495 6 1 C7 5.875 7 5.875 7 7 C5.35 7 3.7 7 2 7 C2 7.66 2 8.32 2 9 C1.34 9 0.68 9 0 9 C-1.125 2.25 -1.125 2.25 0 0 Z " fill="#2A2929" transform="translate(94,91)"/>
<path d="M0 0 C0.99 0.495 0.99 0.495 2 1 C1.67 2.32 1.34 3.64 1 5 C2.32 5 3.64 5 5 5 C5.33 4.34 5.66 3.68 6 3 C8 6 8 6 7.625 8.1875 C7.41875 8.785625 7.2125 9.38375 7 10 C5.824375 9.9071875 5.824375 9.9071875 4.625 9.8125 C3.325625 9.9053125 3.325625 9.9053125 2 10 C1.34 10.99 0.68 11.98 0 13 C0 8.71 0 4.42 0 0 Z " fill="#454443" transform="translate(129,53)"/>
<path d="M0 0 C2.31 0.33 4.62 0.66 7 1 C7.38218767 2.65614657 7.71395102 4.32457024 8 6 C7 7 7 7 3.4375 7.0625 C2.303125 7.041875 1.16875 7.02125 0 7 C0 4.69 0 2.38 0 0 Z " fill="#4B4A4A" transform="translate(22,77)"/>
<path d="M0 0 C2.08133467 3.122002 2.2737822 3.93266989 2.25 7.5 C2.25515625 8.2734375 2.2603125 9.046875 2.265625 9.84375 C2 12 2 12 0 15 C-2.31 14.34 -4.62 13.68 -7 13 C-6.67 11.68 -6.34 10.36 -6 9 C-4.02 9.66 -2.04 10.32 0 11 C0 8.36 0 5.72 0 3 C-1.65 3 -3.3 3 -5 3 C-5 2.67 -5 2.34 -5 2 C-3.35 2 -1.7 2 0 2 C0 1.34 0 0.68 0 0 Z " fill="#92908E" transform="translate(193,22)"/>
<path d="M0 0 C2.31 0 4.62 0 7 0 C6.67 2.64 6.34 5.28 6 8 C4.02 8 2.04 8 0 8 C0 5.36 0 2.72 0 0 Z " fill="#454544" transform="translate(173,22)"/>
<path d="M0 0 C2.64 0 5.28 0 8 0 C7.67 1.98 7.34 3.96 7 6 C5.68 6 4.36 6 3 6 C2.67 5.67 2.34 5.34 2 5 C2 7.64 2 10.28 2 13 C1.34 13 0.68 13 0 13 C0 8.71 0 4.42 0 0 Z " fill="#5E5D5C" transform="translate(65,22)"/>
<path d="M0 0 C1.98 0 3.96 0 6 0 C6 2.64 6 5.28 6 8 C3.69 8 1.38 8 -1 8 C-1 6 -1 6 1 4 C0.6814823 1.89179203 0.6814823 1.89179203 0 0 Z " fill="#ACA9A7" transform="translate(173,55)"/>
<path d="M0 0 C1.98 0 3.96 0 6 0 C6 0.66 6 1.32 6 2 C7.32 2 8.64 2 10 2 C10.33 1.34 10.66 0.68 11 0 C11 0.66 11 1.32 11 2 C11.66 2.33 12.32 2.66 13 3 C13 3.66 13 4.32 13 5 C8.25 7 8.25 7 6 7 C5.67 5.68 5.34 4.36 5 3 C3.35 2.67 1.7 2.34 0 2 C0 1.34 0 0.68 0 0 Z " fill="#323131" transform="translate(188,42)"/>
<path d="M0 0 C0 0.66 0 1.32 0 2 C0.66 2.33 1.32 2.66 2 3 C2 3.66 2 4.32 2 5 C-0.95664519 6.4783226 -3.74229737 6.06032783 -7 6 C-7 4.35 -7 2.7 -7 1 C-4.53721199 -0.231394 -2.7204945 -0.07159196 0 0 Z " fill="#4F4E4D" transform="translate(43,78)"/>
<path d="M0 0 C2.31 0 4.62 0 7 0 C7 1.98 7 3.96 7 6 C4.69 6 2.38 6 0 6 C0 4.02 0 2.04 0 0 Z " fill="#555453" transform="translate(8,50)"/>
<path d="M0 0 C1.32 0 2.64 0 4 0 C4 4.62 4 9.24 4 14 C2.68 13.01 1.36 12.02 0 11 C0 10.34 0 9.68 0 9 C0.66 9 1.32 9 2 9 C2 8.34 2 7.68 2 7 C1.34 6.67 0.68 6.34 0 6 C-0.6875 3.5 -0.6875 3.5 -1 1 C-0.67 0.67 -0.34 0.34 0 0 Z " fill="#2F2F2E" transform="translate(111,49)"/>
<path d="M0 0 C2.31 0 4.62 0 7 0 C7 1.98 7 3.96 7 6 C4.69 6 2.38 6 0 6 C0 4.02 0 2.04 0 0 Z " fill="#555453" transform="translate(8,36)"/>
<path d="M0 0 C2.64 0 5.28 0 8 0 C8.33 1.65 8.66 3.3 9 5 C4.545 5.495 4.545 5.495 0 6 C0.66 5.67 1.32 5.34 2 5 C2 4.34 2 3.68 2 3 C1.34 2.67 0.68 2.34 0 2 C0 1.34 0 0.68 0 0 Z " fill="#434241" transform="translate(135,39)"/>
<path d="M0 0 C2.31 0 4.62 0 7 0 C7 1.98 7 3.96 7 6 C4.69 6 2.38 6 0 6 C0 4.02 0 2.04 0 0 Z " fill="#555453" transform="translate(8,22)"/>
<path d="M0 0 C0 5.28 0 10.56 0 16 C-3 17 -3 17 -5.1875 16.0625 C-5.785625 15.711875 -6.38375 15.36125 -7 15 C-6.67 14.34 -6.34 13.68 -6 13 C-4.35 13 -2.7 13 -1 13 C-1 12.34 -1 11.68 -1 11 C-2.65 11 -4.3 11 -6 11 C-6 10.67 -6 10.34 -6 10 C-4.35 10 -2.7 10 -1 10 C-1 7.36 -1 4.72 -1 2 C-2.65 2 -4.3 2 -6 2 C-6 1.67 -6 1.34 -6 1 C-1.125 0 -1.125 0 0 0 Z " fill="#737270" transform="translate(201,9)"/>
<path d="M0 0 C2.27024968 -0.08097324 4.54132075 -0.13917704 6.8125 -0.1875 C8.07707031 -0.22230469 9.34164062 -0.25710937 10.64453125 -0.29296875 C14 0 14 0 15.8125 1.4375 C16.204375 1.953125 16.59625 2.46875 17 3 C19.09989652 4.17574711 19.09989652 4.17574711 21 5 C21 5.66 21 6.32 21 7 C20.34 7 19.68 7 19 7 C19 7.66 19 8.32 19 9 C18.34 9 17.68 9 17 9 C17 8.01 17 7.02 17 6 C14.62434141 3.11527171 12.674906 2.10707221 8.99609375 1.5234375 C5.9955594 1.27545945 3.00899058 1.09598056 0 1 C0 0.67 0 0.34 0 0 Z " fill="#565454" transform="translate(158,77)"/>
<path d="M0 0 C2.64 0 5.28 0 8 0 C7.67 1.98 7.34 3.96 7 6 C4.69 6 2.38 6 0 6 C0 4.02 0 2.04 0 0 Z " fill="#504F4E" transform="translate(108,78)"/>
<path d="M0 0 C1.65 0 3.3 0 5 0 C6.4606285 2.64738916 7 3.89448334 7 7 C6.34 7 5.68 7 5 7 C5 7.66 5 8.32 5 9 C4.01 9.33 3.02 9.66 2 10 C2 8.68 2 7.36 2 6 C1.54102298 3.77068303 1.01968085 2.03936171 0 0 Z " fill="#222121" transform="translate(58,77)"/>
<path d="M0 0 C1.4540625 0.0309375 1.4540625 0.0309375 2.9375 0.0625 C2.9375 2.0425 2.9375 4.0225 2.9375 6.0625 C0.6275 6.0625 -1.6825 6.0625 -4.0625 6.0625 C-4.105221 4.39638095 -4.10313832 2.72867115 -4.0625 1.0625 C-3.0625 0.0625 -3.0625 0.0625 0 0 Z " fill="#545352" transform="translate(19.0625,7.9375)"/>
<path d="M0 0 C2.31 0 4.62 0 7 0 C7 0.66 7 1.32 7 2 C11.62 2 16.24 2 21 2 C21 2.33 21 2.66 21 3 C17.87549468 3.19645093 14.75038555 3.38063489 11.625 3.5625 C10.29082031 3.64661133 10.29082031 3.64661133 8.9296875 3.73242188 C7.65351562 3.80493164 7.65351562 3.80493164 6.3515625 3.87890625 C5.56604004 3.9260376 4.78051758 3.97316895 3.97119141 4.02172852 C2 4 2 4 0 3 C0 2.01 0 1.02 0 0 Z " fill="#8C8A88" transform="translate(108,33)"/>
<path d="M0 0 C2.64 0 5.28 0 8 0 C7.67 1.65 7.34 3.3 7 5 C5.02 5 3.04 5 1 5 C1.33 6.65 1.66 8.3 2 10 C1.01 10.495 1.01 10.495 0 11 C0 7.37 0 3.74 0 0 Z " fill="#BBB9B6" transform="translate(193,8)"/>
<path d="M0 0 C0.99 0.33 1.98 0.66 3 1 C3 2.65 3 4.3 3 6 C1.125 5.75 1.125 5.75 -1 5 C-1.66 3.68 -2.32 2.36 -3 1 C-6.3 1 -9.6 1 -13 1 C-13.33 0.34 -13.66 -0.32 -14 -1 C-4.71608833 -2.49675264 -4.71608833 -2.49675264 0 0 Z " fill="#1E1E1D" transform="translate(98,106)"/>
<path d="M0 0 C2.31 0 4.62 0 7 0 C7 1.98 7 3.96 7 6 C4.69 6 2.38 6 0 6 C0 4.02 0 2.04 0 0 Z " fill="#525150" transform="translate(108,36)"/>
<path d="M0 0 C3.375 -0.125 3.375 -0.125 7 0 C9 2 9 2 9 4 C6.04335481 5.4783226 3.25770263 5.06032783 0 5 C0 3.35 0 1.7 0 0 Z " fill="#5B5A59" transform="translate(36,86)"/>
<path d="M0 0 C2 2 2 2 2.1953125 4.8203125 C2.16050781 6.45613281 2.16050781 6.45613281 2.125 8.125 C2.10695313 9.22070312 2.08890625 10.31640625 2.0703125 11.4453125 C2.04710938 12.28835937 2.02390625 13.13140625 2 14 C-0.64 14 -3.28 14 -6 14 C-6.33 13.34 -6.66 12.68 -7 12 C-5 10 -5 10 -2.375 9.875 C-1.59125 9.91625 -0.8075 9.9575 0 10 C0 7.36 0 4.72 0 2 C-1.65 2 -3.3 2 -5 2 C-5 1.67 -5 1.34 -5 1 C-2.625 0.375 -2.625 0.375 0 0 Z " fill="#848381" transform="translate(93,79)"/>
<path d="M0 0 C0.99 0.33 1.98 0.66 3 1 C3 4.3 3 7.6 3 11 C1.02 11.99 1.02 11.99 -1 13 C-1.02686553 11.02090602 -1.04633375 9.04171029 -1.0625 7.0625 C-1.07410156 5.96035156 -1.08570313 4.85820313 -1.09765625 3.72265625 C-1 1 -1 1 0 0 Z " fill="#363534" transform="translate(155,106)"/>
<path d="M0 0 C2.97 0.33 5.94 0.66 9 1 C8.67 2.32 8.34 3.64 8 5 C5.36 5 2.72 5 0 5 C0 3.35 0 1.7 0 0 Z " fill="#5D5B5A" transform="translate(50,86)"/>
<path d="M0 0 C4.75 0.75 4.75 0.75 7 3 C8.31747324 3.69748583 9.64914193 4.36959957 11 5 C7.25 8 7.25 8 5 8 C5 7.34 5 6.68 5 6 C4.01 5.67 3.02 5.34 2 5 C0.8125 2.4375 0.8125 2.4375 0 0 Z " fill="#252525" transform="translate(166,78)"/>
<path d="M0 0 C0 2.64 0 5.28 0 8 C-2.97 7.505 -2.97 7.505 -6 7 C-6 5.02 -6 3.04 -6 1 C-3.92446352 0.4465236 -2.15634036 0 0 0 Z " fill="#BBB8B6" transform="translate(129,67)"/>
<path d="M0 0 C1.98 0 3.96 0 6 0 C6 1.98 6 3.96 6 6 C4.02 6 2.04 6 0 6 C0 4.02 0 2.04 0 0 Z " fill="#E4E1DE" transform="translate(151,15)"/>
<path d="M0 0 C1.98 0 3.96 0 6 0 C6 1.98 6 3.96 6 6 C4.02 6 2.04 6 0 6 C0 4.02 0 2.04 0 0 Z " fill="#E4E1DE" transform="translate(144,15)"/>
<path d="M0 0 C1.98 0 3.96 0 6 0 C6 1.98 6 3.96 6 6 C4.02 6 2.04 6 0 6 C0 4.02 0 2.04 0 0 Z " fill="#E4E1DE" transform="translate(137,15)"/>
<path d="M0 0 C2.31 0 4.62 0 7 0 C7 1.65 7 3.3 7 5 C5.02 5.33 3.04 5.66 1 6 C0.67 4.02 0.34 2.04 0 0 Z " fill="#5A5957" transform="translate(51,106)"/>
<path d="M0 0 C0 0.99 0 1.98 0 3 C-4.455 3.495 -4.455 3.495 -9 4 C-9 2.35 -9 0.7 -9 -1 C-5.79937313 -2.60031344 -3.27728194 -1.03173691 0 0 Z " fill="#575655" transform="translate(59,80)"/>
<path d="M0 0 C0.53625 0.37125 1.0725 0.7425 1.625 1.125 C1.625 1.785 1.625 2.445 1.625 3.125 C-1.58951269 4.73225635 -4.81112536 4.18248185 -8.375 4.125 C-8.375 3.135 -8.375 2.145 -8.375 1.125 C-2.95961538 -1.09038462 -2.95961538 -1.09038462 0 0 Z " fill="#5B5A59" transform="translate(93.375,100.875)"/>
<path d="M0 0 C2.31 0 4.62 0 7 0 C7.5625 1.9375 7.5625 1.9375 8 4 C7 5 7 5 3.4375 5.0625 C2.303125 5.041875 1.16875 5.02125 0 5 C0 3.35 0 1.7 0 0 Z " fill="#5D5C5B" transform="translate(58,72)"/>
<path d="M0 0 C0.33 0 0.66 0 1 0 C1 4.62 1 9.24 1 14 C-2 15 -2 15 -4.1875 14.0625 C-4.785625 13.711875 -5.38375 13.36125 -6 13 C-4.68 13 -3.36 13 -2 13 C-2 12.34 -2 11.68 -2 11 C-1.34 11 -0.68 11 0 11 C0 10.34 0 9.68 0 9 C-2.31 9 -4.62 9 -7 9 C-7 8.67 -7 8.34 -7 8 C-4.69 8 -2.38 8 0 8 C0 5.36 0 2.72 0 0 Z " fill="#656362" transform="translate(129,67)"/>
<path d="M0 0 C0.33 1.65 0.66 3.3 1 5 C-1.12472576 5.05386629 -3.24983652 5.09273071 -5.375 5.125 C-7.15003906 5.15980469 -7.15003906 5.15980469 -8.9609375 5.1953125 C-12 5 -12 5 -14 3 C-12.7625 2.87625 -11.525 2.7525 -10.25 2.625 C-6.63071699 2.18377999 -3.45037294 0 0 0 Z " fill="#848281" transform="translate(58,74)"/>
<path d="M0 0 C-0.33 1.32 -0.66 2.64 -1 4 C-3.64 4 -6.28 4 -9 4 C-9 3.01 -9 2.02 -9 1 C-3.375 -1.125 -3.375 -1.125 0 0 Z " fill="#5A5958" transform="translate(144,45)"/>
<path d="M0 0 C2.97 0.495 2.97 0.495 6 1 C6 1.66 6 2.32 6 3 C6.66 3.66 7.32 4.32 8 5 C7 6 7 6 3.4375 6.0625 C2.303125 6.041875 1.16875 6.02125 0 6 C0 4.02 0 2.04 0 0 Z " fill="#4D4C4B" transform="translate(58,64)"/>
<path d="M0 0 C0.99 0 1.98 0 3 0 C3 0.66 3 1.32 3 2 C3.66 2.33 4.32 2.66 5 3 C5 3.66 5 4.32 5 5 C0.25 7 0.25 7 -2 7 C-2 5.35 -2 3.7 -2 2 C-1.34 2 -0.68 2 0 2 C0 1.34 0 0.68 0 0 Z " fill="#333232" transform="translate(139,56)"/>
<path d="M0 0 C1.65 0.33 3.3 0.66 5 1 C4.67 2.65 4.34 4.3 4 6 C2.35 5.67 0.7 5.34 -1 5 C-0.67 3.35 -0.34 1.7 0 0 Z " fill="#3D3C3B" transform="translate(67,39)"/>
<path d="M0 0 C-0.33 1.32 -0.66 2.64 -1 4 C-3.31 4 -5.62 4 -8 4 C-7.67 2.68 -7.34 1.36 -7 0 C-3.98968256 -0.93423645 -3.13349732 -1.04449911 0 0 Z " fill="#5A5958" transform="translate(44,101)"/>
<path d="M0 0 C2.97 0.495 2.97 0.495 6 1 C6 2.32 6 3.64 6 5 C3.69 5 1.38 5 -1 5 C-0.67 3.35 -0.34 1.7 0 0 Z " fill="#565554" transform="translate(95,86)"/>
<path d="M0 0 C-0.33 1.32 -0.66 2.64 -1 4 C-3.31 4 -5.62 4 -8 4 C-7.67 2.68 -7.34 1.36 -7 0 C-3.98968256 -0.93423645 -3.13349732 -1.04449911 0 0 Z " fill="#5E5D5B" transform="translate(194,45)"/>
<path d="M0 0 C1.65 0 3.3 0 5 0 C5.5625 1.9375 5.5625 1.9375 6 4 C5 5 5 5 1.9375 5.0625 C0.4834375 5.0315625 0.4834375 5.0315625 -1 5 C-0.67 3.35 -0.34 1.7 0 0 Z " fill="#575655" transform="translate(195,30)"/>
<path d="M0 0 C2.33944736 0.28730055 4.6739143 0.61936779 7 1 C6.67 2.32 6.34 3.64 6 5 C4.02 5 2.04 5 0 5 C-0.5625 3.0625 -0.5625 3.0625 -1 1 C-0.67 0.67 -0.34 0.34 0 0 Z " fill="#605F5E" transform="translate(52,100)"/>
<path d="M0 0 C2.00720923 0.28674418 4.0085944 0.61866701 6 1 C6 2.32 6 3.64 6 5 C4.02 5 2.04 5 0 5 C-0.5625 3.0625 -0.5625 3.0625 -1 1 C-0.67 0.67 -0.34 0.34 0 0 Z " fill="#5C5B5A" transform="translate(152,86)"/>
<path d="M0 0 C2 0.66666667 4 1.33333333 6 2 C6.66 2 7.32 2 8 2 C8 3.32 8 4.64 8 6 C5.36 6 2.72 6 0 6 C0 4.02 0 2.04 0 0 Z " fill="#363534" transform="translate(150,81)"/>
<path d="M0 0 C4.62 0 9.24 0 14 0 C14.33 1.32 14.66 2.64 15 4 C14.01 4.495 14.01 4.495 13 5 C10.875 4.0625 10.875 4.0625 9 3 C9 2.67 9 2.34 9 2 C6.03 1.67 3.06 1.34 0 1 C0 0.67 0 0.34 0 0 Z " fill="#7C7A79" transform="translate(51,63)"/>
<path d="M0 0 C2.475 0.99 2.475 0.99 5 2 C4.25 3.9375 4.25 3.9375 3 6 C0.875 6.75 0.875 6.75 -1 7 C-1 3 -1 3 0 0 Z " fill="#1E1E1E" transform="translate(87,108)"/>
<path d="M0 0 C2.97 0.33 5.94 0.66 9 1 C5 3 5 3 1 3 C1 4.32 1 5.64 1 7 C1.66 7.33 2.32 7.66 3 8 C2.34 8 1.68 8 1 8 C0.67 8.66 0.34 9.32 0 10 C0 6.7 0 3.4 0 0 Z " fill="#A19F9D" transform="translate(72,51)"/>
<path d="M0 0 C2.31 0 4.62 0 7 0 C7 1.32 7 2.64 7 4 C4.69 4 2.38 4 0 4 C0 2.68 0 1.36 0 0 Z " fill="#AFADAB" transform="translate(151,50)"/>
<path d="M0 0 C2.31 0 4.62 0 7 0 C7 1.32 7 2.64 7 4 C4.69 4 2.38 4 0 4 C0 2.68 0 1.36 0 0 Z " fill="#AFADAB" transform="translate(151,36)"/>
<path d="M0 0 C1.65 0 3.3 0 5 0 C5.33 1.32 5.66 2.64 6 4 C4.35 4.33 2.7 4.66 1 5 C0.34 4.01 -0.32 3.02 -1 2 C-0.67 1.34 -0.34 0.68 0 0 Z " fill="#595857" transform="translate(31,30)"/>
<path d="M0 0 C0.66 0.33 1.32 0.66 2 1 C3.35024359 5.1734802 2.7518819 8.73933592 2 13 C1.34 13 0.68 13 0 13 C-0.63146072 8.97443789 -1.24001982 5.08033686 -1 1 C-0.67 0.67 -0.34 0.34 0 0 Z " fill="#1E1E1E" transform="translate(30,78)"/>
<path d="M0 0 C1.98 0 3.96 0 6 0 C6 1.32 6 2.64 6 4 C3.69 4 1.38 4 -1 4 C-0.67 2.68 -0.34 1.36 0 0 Z " fill="#ACAAA7" transform="translate(52,64)"/>
<path d="M0 0 C1.32 0.66 2.64 1.32 4 2 C3.67 3.32 3.34 4.64 3 6 C1.68 6.33 0.36 6.66 -1 7 C-1 3 -1 3 0 0 Z " fill="#191918" transform="translate(68,52)"/>
<path d="M0 0 C2.31 0.66 4.62 1.32 7 2 C6.34 2.66 5.68 3.32 5 4 C3.68 4 2.36 4 1 4 C1 5.32 1 6.64 1 8 C1.66 8.33 2.32 8.66 3 9 C2.34 9 1.68 9 1 9 C0.67 9.66 0.34 10.32 0 11 C0 7.37 0 3.74 0 0 Z " fill="#A2A09E" transform="translate(72,36)"/>
<path d="M0 0 C0.556875 0.144375 1.11375 0.28875 1.6875 0.4375 C4.50492615 1.12281987 7.11111385 1.0656565 10 1 C10 1.99 10 2.98 10 4 C2.49230769 4.36923077 2.49230769 4.36923077 0 2.5 C-0.33 2.005 -0.66 1.51 -1 1 C-0.67 0.67 -0.34 0.34 0 0 Z " fill="#424140" transform="translate(74,87)"/>
<path d="M0 0 C2.64 0 5.28 0 8 0 C8.33 1.32 8.66 2.64 9 4 C6 5 6 5 3.9375 4.25 C2 3 2 3 0 0 Z " fill="#5D5C5B" transform="translate(78,86)"/>
<path d="M0 0 C0.99 0.33 1.98 0.66 3 1 C2.814375 1.9075 2.62875 2.815 2.4375 3.75 C2.04265379 6.68314324 2.05308428 8.2644657 3 11 C2.01 11 1.02 11 0 11 C0 7.37 0 3.74 0 0 Z " fill="#4E4D4C" transform="translate(65,51)"/>
<path d="M0 0 C0.99 0.33 1.98 0.66 3 1 C2.814375 1.9075 2.62875 2.815 2.4375 3.75 C2.04265379 6.68314324 2.05308428 8.2644657 3 11 C2.01 11 1.02 11 0 11 C0 7.37 0 3.74 0 0 Z " fill="#4E4D4C" transform="translate(172,37)"/>
<path d="M0 0 C2.31 0 4.62 0 7 0 C6.67 1.32 6.34 2.64 6 4 C3.03 3.505 3.03 3.505 0 3 C0 2.01 0 1.02 0 0 Z " fill="#ACAAA7" transform="translate(108,22)"/>
<path d="M0 0 C2.125 0.375 2.125 0.375 4 1 C4.33 2.32 4.66 3.64 5 5 C2.625 5.1875 2.625 5.1875 0 5 C-0.66 4.01 -1.32 3.02 -2 2 C-1.34 1.34 -0.68 0.68 0 0 Z " fill="#555453" transform="translate(152,72)"/>
<path d="M0 0 C1.5 1.25 1.5 1.25 3 3 C3 4.32 3 5.64 3 7 C2.01 7.33 1.02 7.66 0 8 C-2.35953094 5.64046906 -2.49141413 4.22104383 -3 1 C-2.01 0.67 -1.02 0.34 0 0 Z " fill="#191818" transform="translate(70,62)"/>
<path d="M0 0 C2.00720923 0.28674418 4.0085944 0.61866701 6 1 C6 1.99 6 2.98 6 4 C4.02 4.33 2.04 4.66 0 5 C-0.5625 3.0625 -0.5625 3.0625 -1 1 C-0.67 0.67 -0.34 0.34 0 0 Z " fill="#61605F" transform="translate(52,114)"/>
<path d="M0 0 C2.31 0.33 4.62 0.66 7 1 C7.33 1.99 7.66 2.98 8 4 C4.37673261 5.2077558 3.35853631 4.54311128 0 3 C0 2.01 0 1.02 0 0 Z " fill="#626160" transform="translate(186,35)"/>
<path d="M0 0 C1.98 0 3.96 0 6 0 C6.5625 1.9375 6.5625 1.9375 7 4 C6 5 6 5 2.9375 5.0625 C1.4834375 5.0315625 1.4834375 5.0315625 0 5 C0 3.35 0 1.7 0 0 Z " fill="#4E4D4C" transform="translate(130,30)"/>
<path d="M0 0 C2.31 0 4.62 0 7 0 C7 0.99 7 1.98 7 3 C3.37673261 4.2077558 2.35853631 3.54311128 -1 2 C-0.67 1.34 -0.34 0.68 0 0 Z " fill="#605F5E" transform="translate(37,92)"/>
<path d="M0 0 C0 0.66 0 1.32 0 2 C0.66 2.33 1.32 2.66 2 3 C-1.81489674 4.46726798 -4.29011622 3.43336419 -8 2 C-4.91190305 0.23537317 -3.76687864 0 0 0 Z " fill="#5D5C5B" transform="translate(93,92)"/>
<path d="M0 0 C0.78375 0.04125 1.5675 0.0825 2.375 0.125 C2.375 0.785 2.375 1.445 2.375 2.125 C3.035 2.455 3.695 2.785 4.375 3.125 C1.58676345 4.1576802 0.5072726 4.17009293 -2.375 3.1875 C-3.1175 2.836875 -3.86 2.48625 -4.625 2.125 C-2.625 0.125 -2.625 0.125 0 0 Z " fill="#5F5E5D" transform="translate(40.625,77.875)"/>
<path d="M0 0 C1.98 0.495 1.98 0.495 4 1 C3.01 1 2.02 1 1 1 C2.32 1.66 3.64 2.32 5 3 C5 3.66 5 4.32 5 5 C3.02 5 1.04 5 -1 5 C-0.67 3.35 -0.34 1.7 0 0 Z " fill="#363635" transform="translate(67,25)"/>
<path d="M0 0 C-0.33 1.32 -0.66 2.64 -1 4 C-3.97 3.505 -3.97 3.505 -7 3 C-7 2.01 -7 1.02 -7 0 C-3.98968256 -0.93423645 -3.13349732 -1.04449911 0 0 Z " fill="#636260" transform="translate(130,87)"/>
<path d="M0 0 C-0.33 1.32 -0.66 2.64 -1 4 C-3.97 3.505 -3.97 3.505 -7 3 C-7 2.01 -7 1.02 -7 0 C-3.98968256 -0.93423645 -3.13349732 -1.04449911 0 0 Z " fill="#696866" transform="translate(30,87)"/>
<path d="M0 0 C2.31 0 4.62 0 7 0 C7 1.32 7 2.64 7 4 C4.69 4 2.38 4 0 4 C0 2.68 0 1.36 0 0 Z " fill="#333231" transform="translate(94,83)"/>
<path d="M0 0 C0.33 0.99 0.66 1.98 1 3 C3.31 3 5.62 3 8 3 C8 3.33 8 3.66 8 4 C-0.57142857 5.42857143 -0.57142857 5.42857143 -4 3 C-4 2.34 -4 1.68 -4 1 C-2.68 0.67 -1.36 0.34 0 0 Z " fill="#716F6E" transform="translate(71,44)"/>
<path d="M0 0 C1.32 0.66 2.64 1.32 4 2 C4 2.99 4 3.98 4 5 C2.35 4.67 0.7 4.34 -1 4 C-0.67 2.68 -0.34 1.36 0 0 Z " fill="#3D3D3C" transform="translate(37,128)"/>
<path d="M0 0 C1.32 0.66 2.64 1.32 4 2 C4 2.99 4 3.98 4 5 C2.35 4.67 0.7 4.34 -1 4 C-0.67 2.68 -0.34 1.36 0 0 Z " fill="#3D3D3C" transform="translate(37,114)"/>
<path d="M0 0 C3.65316671 1.24976756 4.78065836 1.67098753 7 5 C5.68 5.33 4.36 5.66 3 6 C2.01 4.02 1.02 2.04 0 0 Z " fill="#262625" transform="translate(58,91)"/>
<path d="M0 0 C2.31 0.33 4.62 0.66 7 1 C7.33 1.99 7.66 2.98 8 4 C5 5 5 5 2.875 4.25 C1 3 1 3 0 0 Z " fill="#6A6967" transform="translate(22,77)"/>
<path d="M0 0 C1.32 0.66 2.64 1.32 4 2 C4 2.99 4 3.98 4 5 C2.35 4.67 0.7 4.34 -1 4 C-0.67 2.68 -0.34 1.36 0 0 Z " fill="#3D3D3C" transform="translate(187,72)"/>
<path d="M0 0 C1.32 0.66 2.64 1.32 4 2 C4 2.99 4 3.98 4 5 C2.35 4.67 0.7 4.34 -1 4 C-0.67 2.68 -0.34 1.36 0 0 Z " fill="#3D3D3C" transform="translate(187,58)"/>
<path d="M0 0 C1.98 0 3.96 0 6 0 C6.33 1.32 6.66 2.64 7 4 C6.01 4.33 5.02 4.66 4 5 C2.68 3.35 1.36 1.7 0 0 Z " fill="#383737" transform="translate(194,36)"/>
<path d="M0 0 C2.64 0 5.28 0 8 0 C8 0.99 8 1.98 8 3 C5.69 3.33 3.38 3.66 1 4 C0.67 2.68 0.34 1.36 0 0 Z " fill="#6C6B69" transform="translate(51,92)"/>
<path d="M0 0 C2.97 0.495 2.97 0.495 6 1 C6 1.99 6 2.98 6 4 C4.02 4.33 2.04 4.66 0 5 C0 3.35 0 1.7 0 0 Z " fill="#656463" transform="translate(108,86)"/>
<path d="M0 0 C1.32 1.65 2.64 3.3 4 5 C3.01 5.66 2.02 6.32 1 7 C0.34 6.34 -0.32 5.68 -1 5 C-0.625 2.375 -0.625 2.375 0 0 Z " fill="#383837" transform="translate(32,84)"/>
<path d="M0 0 C2.875 -0.125 2.875 -0.125 6 0 C6.66 0.66 7.32 1.32 8 2 C5.29120665 3.35439668 2.99066732 3.06501451 0 3 C0 2.01 0 1.02 0 0 Z " fill="#4C4B4A" transform="translate(78,81)"/>
<path d="M0 0 C2.375 -0.1875 2.375 -0.1875 5 0 C5.66 0.99 6.32 1.98 7 3 C5.68 3.33 4.36 3.66 3 4 C2.01 2.68 1.02 1.36 0 0 Z " fill="#262525" transform="translate(172,77)"/>
<path d="M0 0 C0.66 0 1.32 0 2 0 C2 1.65 2 3.3 2 5 C0.02 5 -1.96 5 -4 5 C-4 4.01 -4 3.02 -4 2 C-2.68 2 -1.36 2 0 2 C0 1.34 0 0.68 0 0 Z " fill="#4F4E4D" transform="translate(84,72)"/>
<path d="M0 0 C2.875 -0.125 2.875 -0.125 6 0 C6.66 0.66 7.32 1.32 8 2 C5.29120665 3.35439668 2.99066732 3.06501451 0 3 C0 2.01 0 1.02 0 0 Z " fill="#4B4A4A" transform="translate(71,67)"/>
<path d="M0 0 C2.97 0.495 2.97 0.495 6 1 C6 1.99 6 2.98 6 4 C4.02 4.33 2.04 4.66 0 5 C0 3.35 0 1.7 0 0 Z " fill="#656463" transform="translate(8,58)"/>
<path d="M0 0 C1.32 0.66 2.64 1.32 4 2 C3.67 2.99 3.34 3.98 3 5 C1.68 5 0.36 5 -1 5 C-0.67 3.35 -0.34 1.7 0 0 Z " fill="#191918" transform="translate(131,53)"/>
<path d="M0 0 C2.31 0 4.62 0 7 0 C6.67 0.99 6.34 1.98 6 3 C3.03 2.505 3.03 2.505 0 2 C0 1.34 0 0.68 0 0 Z " fill="#323131" transform="translate(8,56)"/>
<path d="M0 0 C2.97 0.495 2.97 0.495 6 1 C6 1.99 6 2.98 6 4 C4.02 4.33 2.04 4.66 0 5 C0 3.35 0 1.7 0 0 Z " fill="#656463" transform="translate(108,44)"/>
<path d="M0 0 C2.97 0.495 2.97 0.495 6 1 C6 1.99 6 2.98 6 4 C4.02 4.33 2.04 4.66 0 5 C0 3.35 0 1.7 0 0 Z " fill="#656463" transform="translate(8,44)"/>
<path d="M0 0 C2.97 0.495 2.97 0.495 6 1 C6 1.99 6 2.98 6 4 C4.02 4.33 2.04 4.66 0 5 C0 3.35 0 1.7 0 0 Z " fill="#656463" transform="translate(8,30)"/>
<path d="M0 0 C0 1.65 0 3.3 0 5 C-2.97 4.505 -2.97 4.505 -6 4 C-6 3.01 -6 2.02 -6 1 C-3.92446352 0.4465236 -2.15634036 0 0 0 Z " fill="#636261" transform="translate(22,16)"/>
<path d="M0 0 C2.97 0.495 2.97 0.495 6 1 C6 1.66 6 2.32 6 3 C4.02 3 2.04 3 0 3 C0 2.01 0 1.02 0 0 Z " fill="#595857" transform="translate(95,78)"/>
</svg>
